<svg xmlns:xlink="http://www.w3.org/1999/xlink" preserveAspectRatio="xMidYMid meet" data-bbox="10 15 238.281 170.958" xmlns="http://www.w3.org/2000/svg" viewBox="0 0 258 201" height="201" width="258" data-type="ugc" role="img" aria-label="world class curriculum">
    <g>
        <g clip-path="url(#d18fc156-f7f2-45ce-bc22-cb1db6986689_comp-lddgypby)">
            <path fill-opacity="0.6" fill="#F1F1FF" d="M119.894 176.844c44.692 0 80.922-36.23 80.922-80.922S164.586 15 119.894 15 38.972 51.23 38.972 95.922s36.23 80.922 80.922 80.922Z"></path>
            <path stroke-width="2px" stroke="#202058" fill="#FFFFFF" d="M196.095 37.682H62.321c-7.18 0-13 5.82-13 13v72.854c0 7.18 5.82 13 13 13h133.774c7.18 0 13-5.82 13-13V50.682c0-7.18-5.82-13-13-13Z"></path>
            <path fill="#F6F6FA" d="M122.2 67.684H62.593a3.141 3.141 0 0 0-3.141 3.141v33.922a3.142 3.142 0 0 0 3.141 3.141H122.2a3.141 3.141 0 0 0 3.141-3.141V70.825a3.14 3.14 0 0 0-3.141-3.14Z"></path>
            <g filter="url(#a77fb899-7a71-4a1f-8324-d4c9022933f8_comp-lddgypby)">
                <path fill-opacity="0.01" fill="#14aee6" d="M92.955 77.735c-5.542 0-10.05 4.508-10.05 10.05 0 5.543 4.508 10.052 10.05 10.052 5.543 0 10.051-4.509 10.051-10.051 0-5.543-4.508-10.051-10.05-10.051Zm-1.57 13.802a.698.698 0 0 1-1.052-.602v-6.299c0-.54.587-.875 1.052-.601l5.354 3.15a.698.698 0 0 1 0 1.202l-5.354 3.15Z"></path>
            </g>
            <path fill="#FFFFFF" d="M92.955 93.946a6.16 6.16 0 1 0 0-12.32 6.16 6.16 0 0 0 0 12.32Z"></path>
            <path fill="#14aee6" d="M92.955 77.735c-5.542 0-10.05 4.508-10.05 10.05 0 5.543 4.508 10.052 10.05 10.052 5.543 0 10.051-4.509 10.051-10.051 0-5.543-4.508-10.051-10.05-10.051Zm-1.57 13.802a.698.698 0 0 1-1.052-.602v-6.299c0-.54.587-.875 1.052-.601l5.354 3.15a.698.698 0 0 1 0 1.202l-5.354 3.15Z"></path>
            <path fill="#ECECF4" d="M123.666 111.238H61.127a1.675 1.675 0 1 0 0 3.35h62.539a1.675 1.675 0 0 0 0-3.35Z"></path>
            <path fill="#14aee6" d="M123.666 111.238H61.127a1.675 1.675 0 1 0 0 3.35h62.539a1.675 1.675 0 0 0 0-3.35Z"></path>
            <path fill="#F6F6FA" d="M122.2 120.114H62.593a3.14 3.14 0 0 0-3.141 3.141v33.921a3.142 3.142 0 0 0 3.141 3.142H122.2a3.142 3.142 0 0 0 3.141-3.142v-33.921a3.14 3.14 0 0 0-3.141-3.141Z"></path>
            <g filter="url(#9e30f025-2439-427d-bc9c-748a0e8aba29_comp-lddgypby)">
                <path fill-opacity="0.01" fill="#14aee6" d="M92.955 130.164c-5.542 0-10.05 4.509-10.05 10.051 0 5.543 4.508 10.051 10.05 10.051 5.543 0 10.051-4.508 10.051-10.051 0-5.542-4.508-10.051-10.05-10.051Zm-1.57 13.802a.698.698 0 0 1-1.052-.601v-6.299c0-.54.587-.876 1.052-.602l5.354 3.15a.698.698 0 0 1 0 1.203l-5.354 3.149Z"></path>
            </g>
            <path fill="#FFFFFF" d="M92.955 146.375a6.16 6.16 0 1 0 0-12.32 6.16 6.16 0 0 0 0 12.32Z"></path>
            <path fill="#14aee6" d="M92.955 130.164c-5.542 0-10.05 4.509-10.05 10.051 0 5.543 4.508 10.051 10.05 10.051 5.543 0 10.051-4.508 10.051-10.051 0-5.542-4.508-10.051-10.05-10.051Zm-1.57 13.802a.698.698 0 0 1-1.052-.601v-6.299c0-.54.587-.876 1.052-.602l5.354 3.15a.698.698 0 0 1 0 1.203l-5.354 3.149Z"></path>
            <path fill="#ECECF4" d="M123.666 163.667H61.127a1.675 1.675 0 1 0 0 3.35h62.539a1.675 1.675 0 0 0 0-3.35Z"></path>
            <path fill="#14aee6" d="M97.98 163.667H61.127a1.675 1.675 0 1 0 0 3.35H97.98a1.675 1.675 0 0 0 0-3.35Z"></path>
            <path fill="#F6F6FA" d="M194.056 67.684h-59.607a3.14 3.14 0 0 0-3.141 3.141v33.922a3.141 3.141 0 0 0 3.141 3.141h59.607a3.141 3.141 0 0 0 3.141-3.141V70.825a3.14 3.14 0 0 0-3.141-3.14Z"></path>
            <g filter="url(#3de5e758-93fb-4a99-9756-cfc1c334d01d_comp-lddgypby)">
                <path fill-opacity="0.01" fill="#14aee6" d="M164.81 77.735c-5.542 0-10.05 4.508-10.05 10.05 0 5.543 4.508 10.052 10.05 10.052 5.543 0 10.051-4.509 10.051-10.051 0-5.543-4.508-10.051-10.051-10.051Zm-1.57 13.802a.698.698 0 0 1-1.052-.602v-6.299c0-.54.587-.875 1.052-.601l5.355 3.15a.699.699 0 0 1 0 1.202l-5.355 3.15Z"></path>
            </g>
            <path fill="#FFFFFF" d="M164.81 93.946a6.16 6.16 0 1 0 0-12.32 6.16 6.16 0 0 0 0 12.32Z"></path>
            <path fill="#14aee6" d="M164.81 77.735c-5.542 0-10.05 4.508-10.05 10.05 0 5.543 4.508 10.052 10.05 10.052 5.543 0 10.051-4.509 10.051-10.051 0-5.543-4.508-10.051-10.051-10.051Zm-1.57 13.802a.698.698 0 0 1-1.052-.602v-6.299c0-.54.587-.875 1.052-.601l5.355 3.15a.699.699 0 0 1 0 1.202l-5.355 3.15Z"></path>
            <path fill="#ECECF4" d="M195.521 111.238h-62.539a1.675 1.675 0 0 0 0 3.35h62.539a1.675 1.675 0 0 0 0-3.35Z"></path>
            <path fill="#14aee6" d="M156.974 111.238h-23.992a1.675 1.675 0 0 0 0 3.35h23.992a1.675 1.675 0 0 0 0-3.35Z"></path>
            <path fill="#F6F6FA" d="M194.056 120.114h-59.607a3.14 3.14 0 0 0-3.141 3.141v33.921a3.142 3.142 0 0 0 3.141 3.142h59.607a3.142 3.142 0 0 0 3.141-3.142v-33.921a3.14 3.14 0 0 0-3.141-3.141Z"></path>
            <g filter="url(#368899d7-32e2-4310-9ec3-5ef22c10b132_comp-lddgypby)">
                <path fill-opacity="0.01" fill="#14aee6" d="M164.81 130.164c-5.542 0-10.05 4.509-10.05 10.051 0 5.543 4.508 10.051 10.05 10.051 5.543 0 10.051-4.508 10.051-10.051 0-5.542-4.508-10.051-10.051-10.051Zm-1.57 13.802a.698.698 0 0 1-1.052-.601v-6.299c0-.54.587-.876 1.052-.602l5.355 3.15a.698.698 0 0 1 0 1.203l-5.355 3.149Z"></path>
            </g>
            <path fill="#FFFFFF" d="M164.81 146.375a6.16 6.16 0 1 0 0-12.32 6.16 6.16 0 0 0 0 12.32Z"></path>
            <path fill="#14aee6" d="M164.81 130.164c-5.542 0-10.05 4.509-10.05 10.051 0 5.543 4.508 10.051 10.05 10.051 5.543 0 10.051-4.508 10.051-10.051 0-5.542-4.508-10.051-10.051-10.051Zm-1.57 13.802a.698.698 0 0 1-1.052-.601v-6.299c0-.54.587-.876 1.052-.602l5.355 3.15a.698.698 0 0 1 0 1.203l-5.355 3.149Z"></path>
            <path fill="#ECECF4" d="M195.521 163.667h-62.539a1.675 1.675 0 0 0 0 3.35h62.539a1.675 1.675 0 0 0 0-3.35Z"></path>
            <path fill="#14aee6" d="M169.835 163.667h-36.853a1.675 1.675 0 0 0 0 3.35h36.853a1.675 1.675 0 1 0 0-3.35Z"></path>
            <path fill="#F3F3FF" d="M196.672 44.606H61.746a3 3 0 0 0-3 3v12.032a3 3 0 0 0 3 3h134.926a3 3 0 0 0 3-3V47.606a3 3 0 0 0-3-3Z"></path>
            <g filter="url(#35022b83-fe7e-44b9-abe8-57f1de15b949_comp-lddgypby)">
                <path fill-opacity="0.01" fill="#FFFFFF" d="M210.095 98.564c21.089 0 38.186-17.096 38.186-38.186s-17.097-38.186-38.186-38.186-38.186 17.097-38.186 38.186c0 21.09 17.097 38.186 38.186 38.186Z"></path>
            </g>
            <path fill="#FFFFFF" d="M210.095 98.564c21.089 0 38.186-17.096 38.186-38.186s-17.097-38.186-38.186-38.186-38.186 17.097-38.186 38.186c0 21.09 17.097 38.186 38.186 38.186Z"></path>
            <path stroke-width="2px" stroke="#202058" d="M210.095 97.564c20.537 0 37.186-16.649 37.186-37.186s-16.649-37.186-37.186-37.186-37.186 16.649-37.186 37.186 16.649 37.186 37.186 37.186Z" fill="none"></path>
            <path fill="#E0E0F7" d="M210.095 24.442a35.923 35.923 0 0 1 0 71.845V24.442Z"></path>
            <g filter="url(#7dcedbf3-eea5-4af3-b992-85dd082706c9_comp-lddgypby)">
                <path fill-opacity="0.01" fill="#202058" d="m233.114 67.734-22.126-8.053a1.786 1.786 0 1 0-1.222 3.359l22.125 8.053a1.788 1.788 0 0 0 1.223-3.359Z"></path>
                <path fill-opacity="0.01" fill="#202058" d="M219.835 48.741a1.788 1.788 0 0 0-2.928-2.05l-8.559 12.223a1.788 1.788 0 0 0 2.928 2.05l8.559-12.223Z"></path>
                <path fill-opacity="0.01" fill="#202058" d="M210.095 65.844a5.466 5.466 0 1 0 0-10.931 5.466 5.466 0 0 0 0 10.93Z"></path>
            </g>
            <path fill="#202058" d="m233.114 67.734-22.126-8.053a1.786 1.786 0 1 0-1.222 3.359l22.125 8.053a1.788 1.788 0 0 0 1.223-3.359Z"></path>
            <path fill="#202058" d="M219.835 48.741a1.788 1.788 0 0 0-2.928-2.05l-8.559 12.223a1.788 1.788 0 0 0 2.928 2.05l8.559-12.223Z"></path>
            <path fill="#202058" d="M210.095 65.844a5.466 5.466 0 1 0 0-10.931 5.466 5.466 0 0 0 0 10.93Z"></path>
            <path stroke-width="2px" stroke="#202058" fill="#F4F4FA" d="M61.49 137.5h135.919a17 17 0 0 1 14.373 7.923l18.819 29.798c2.944 4.661-.405 10.737-5.918 10.737H33.875c-5.539 0-8.884-6.127-5.888-10.785l19.203-29.867a17 17 0 0 1 14.3-7.806Z"></path>
            <path stroke-width="2px" stroke="#202058" fill="#FFFFFF" d="M60.91 135.124h137.076a17.001 17.001 0 0 1 13.903 7.217l17.621 25.042c3.264 4.638-.053 11.028-5.724 11.028H34.792c-5.698 0-9.009-6.444-5.69-11.076l17.989-25.111a17.001 17.001 0 0 1 13.82-7.1Z"></path>
            <path fill="#F0F0F9" d="M109.252 164.843a4 4 0 0 1 3.323-1.773h33.276c1.335 0 2.582.666 3.325 1.776l3.463 5.179c.889 1.329-.063 3.112-1.662 3.112h-43.534c-1.6 0-2.552-1.785-1.662-3.113l3.471-5.181Z"></path>
            <path fill="#F0F0F9" d="M60.145 140.223a4.002 4.002 0 0 1 3.051-1.413h133.432c1.184 0 2.307.524 3.067 1.432l14.395 17.194c1.09 1.302.164 3.284-1.534 3.284H47.089c-1.703 0-2.627-1.994-1.525-3.293l14.58-17.204Z"></path>
            <g filter="url(#0f06d645-0f69-4128-ac2b-e73e3cd9e50c_comp-lddgypby)">
                <path fill-opacity="0.01" fill="#14aee6" d="M46.452 90.194c-20.1 0-36.452 16.351-36.452 36.452s16.351 36.452 36.452 36.452c20.1 0 36.452-16.351 36.452-36.452S66.553 90.194 46.452 90.194Zm-5.516 49.951c-1.766 1.039-3.993-.234-3.993-2.284V115.43c0-2.049 2.227-3.323 3.993-2.284l19.067 11.216c1.741 1.024 1.741 3.543 0 4.568l-19.067 11.215Z"></path>
            </g>
            <path fill="#FFFFFF" d="M46.38 145.947c11.46 0 20.749-9.29 20.749-20.749s-9.29-20.749-20.75-20.749c-11.459 0-20.748 9.29-20.748 20.749s9.29 20.749 20.749 20.749Z"></path>
            <path fill="#FFFFFF" d="M46.115 145.915c10.787 0 19.532-8.745 19.532-19.532s-8.745-19.532-19.532-19.532-19.532 8.745-19.532 19.532 8.745 19.532 19.532 19.532Z"></path>
            <path fill="#14aee6" d="M46.452 90.194c-20.1 0-36.452 16.351-36.452 36.452s16.351 36.452 36.452 36.452c20.1 0 36.452-16.351 36.452-36.452S66.553 90.194 46.452 90.194Zm-5.516 49.951c-1.766 1.039-3.993-.234-3.993-2.284V115.43c0-2.049 2.227-3.323 3.993-2.284l19.067 11.216c1.741 1.024 1.741 3.543 0 4.568l-19.067 11.215Z"></path>
        </g>
        <defs fill="none">
            <filter color-interpolation-filters="sRGB" filterUnits="userSpaceOnUse" height="27.082" width="27.082" y="75.292" x="79.414" id="a77fb899-7a71-4a1f-8324-d4c9022933f8_comp-lddgypby">
                <feFlood result="BackgroundImageFix" flood-opacity="0"></feFlood>
                <feColorMatrix values="0 0 0 0 0 0 0 0 0 0 0 0 0 0 0 0 0 0 127 0" in="SourceAlpha"></feColorMatrix>
                <feOffset dy="1.047"></feOffset>
                <feGaussianBlur stdDeviation="1.745"></feGaussianBlur>
                <feColorMatrix values="0 0 0 0 0.203922 0 0 0 0 0.203922 0 0 0 0 1 0 0 0 0.25 0"></feColorMatrix>
                <feBlend result="effect1_dropShadow" in2="BackgroundImageFix"></feBlend>
                <feBlend result="shape" in2="effect1_dropShadow" in="SourceGraphic"></feBlend>
            </filter>
            <filter color-interpolation-filters="sRGB" filterUnits="userSpaceOnUse" height="27.082" width="27.082" y="127.721" x="79.414" id="9e30f025-2439-427d-bc9c-748a0e8aba29_comp-lddgypby">
                <feFlood result="BackgroundImageFix" flood-opacity="0"></feFlood>
                <feColorMatrix values="0 0 0 0 0 0 0 0 0 0 0 0 0 0 0 0 0 0 127 0" in="SourceAlpha"></feColorMatrix>
                <feOffset dy="1.047"></feOffset>
                <feGaussianBlur stdDeviation="1.745"></feGaussianBlur>
                <feColorMatrix values="0 0 0 0 0.203922 0 0 0 0 0.203922 0 0 0 0 1 0 0 0 0.25 0"></feColorMatrix>
                <feBlend result="effect1_dropShadow" in2="BackgroundImageFix"></feBlend>
                <feBlend result="shape" in2="effect1_dropShadow" in="SourceGraphic"></feBlend>
            </filter>
            <filter color-interpolation-filters="sRGB" filterUnits="userSpaceOnUse" height="27.082" width="27.081" y="75.292" x="151.27" id="3de5e758-93fb-4a99-9756-cfc1c334d01d_comp-lddgypby">
                <feFlood result="BackgroundImageFix" flood-opacity="0"></feFlood>
                <feColorMatrix values="0 0 0 0 0 0 0 0 0 0 0 0 0 0 0 0 0 0 127 0" in="SourceAlpha"></feColorMatrix>
                <feOffset dy="1.047"></feOffset>
                <feGaussianBlur stdDeviation="1.745"></feGaussianBlur>
                <feColorMatrix values="0 0 0 0 0.203922 0 0 0 0 0.203922 0 0 0 0 1 0 0 0 0.25 0"></feColorMatrix>
                <feBlend result="effect1_dropShadow" in2="BackgroundImageFix"></feBlend>
                <feBlend result="shape" in2="effect1_dropShadow" in="SourceGraphic"></feBlend>
            </filter>
            <filter color-interpolation-filters="sRGB" filterUnits="userSpaceOnUse" height="27.082" width="27.081" y="127.721" x="151.27" id="368899d7-32e2-4310-9ec3-5ef22c10b132_comp-lddgypby">
                <feFlood result="BackgroundImageFix" flood-opacity="0"></feFlood>
                <feColorMatrix values="0 0 0 0 0 0 0 0 0 0 0 0 0 0 0 0 0 0 127 0" in="SourceAlpha"></feColorMatrix>
                <feOffset dy="1.047"></feOffset>
                <feGaussianBlur stdDeviation="1.745"></feGaussianBlur>
                <feColorMatrix values="0 0 0 0 0.203922 0 0 0 0 0.203922 0 0 0 0 1 0 0 0 0.25 0"></feColorMatrix>
                <feBlend result="effect1_dropShadow" in2="BackgroundImageFix"></feBlend>
                <feBlend result="shape" in2="effect1_dropShadow" in="SourceGraphic"></feBlend>
            </filter>
            <filter color-interpolation-filters="sRGB" filterUnits="userSpaceOnUse" height="114.371" width="114.371" y="9.192" x="152.909" id="35022b83-fe7e-44b9-abe8-57f1de15b949_comp-lddgypby">
                <feFlood result="BackgroundImageFix" flood-opacity="0"></feFlood>
                <feColorMatrix values="0 0 0 0 0 0 0 0 0 0 0 0 0 0 0 0 0 0 127 0" in="SourceAlpha"></feColorMatrix>
                <feOffset dy="6"></feOffset>
                <feGaussianBlur stdDeviation="9.5"></feGaussianBlur>
                <feColorMatrix values="0 0 0 0 0.164913 0 0 0 0 0.164913 0 0 0 0 0.670833 0 0 0 0.21 0"></feColorMatrix>
                <feBlend result="effect1_dropShadow" in2="BackgroundImageFix"></feBlend>
                <feBlend result="shape" in2="effect1_dropShadow" in="SourceGraphic"></feBlend>
            </filter>
            <filter color-interpolation-filters="sRGB" filterUnits="userSpaceOnUse" height="35.272" width="39.661" y="42.929" x="199.629" id="7dcedbf3-eea5-4af3-b992-85dd082706c9_comp-lddgypby">
                <feFlood result="BackgroundImageFix" flood-opacity="0"></feFlood>
                <feColorMatrix values="0 0 0 0 0 0 0 0 0 0 0 0 0 0 0 0 0 0 127 0" in="SourceAlpha"></feColorMatrix>
                <feOffset dy="2"></feOffset>
                <feGaussianBlur stdDeviation="2.5"></feGaussianBlur>
                <feColorMatrix values="0 0 0 0 0.12 0 0 0 0 0.12 0 0 0 0 0.8 0 0 0 0.18 0"></feColorMatrix>
                <feBlend result="effect1_dropShadow" in2="BackgroundImageFix"></feBlend>
                <feBlend result="shape" in2="effect1_dropShadow" in="SourceGraphic"></feBlend>
            </filter>
            <filter color-interpolation-filters="sRGB" filterUnits="userSpaceOnUse" height="104.904" width="104.904" y="79.194" x="-6" id="0f06d645-0f69-4128-ac2b-e73e3cd9e50c_comp-lddgypby">
                <feFlood result="BackgroundImageFix" flood-opacity="0"></feFlood>
                <feColorMatrix values="0 0 0 0 0 0 0 0 0 0 0 0 0 0 0 0 0 0 127 0" in="SourceAlpha"></feColorMatrix>
                <feOffset dy="5"></feOffset>
                <feGaussianBlur stdDeviation="8"></feGaussianBlur>
                <feColorMatrix values="0 0 0 0 0.203922 0 0 0 0 0.203922 0 0 0 0 1 0 0 0 0.24 0"></feColorMatrix>
                <feBlend result="effect1_dropShadow" in2="BackgroundImageFix"></feBlend>
                <feBlend result="shape" in2="effect1_dropShadow" in="SourceGraphic"></feBlend>
            </filter>
            <clipPath id="d18fc156-f7f2-45ce-bc22-cb1db6986689_comp-lddgypby">
                <path fill="#ffffff" d="M258 0v201H0V0h258z"></path>
            </clipPath>
        </defs>
    </g>
</svg>