<svg xmlns:xlink="http://www.w3.org/1999/xlink" preserveAspectRatio="xMidYMid meet" data-bbox="9 11 241 178" xmlns="http://www.w3.org/2000/svg" viewBox="0 0 258 201" height="201" width="258" data-type="ugc" role="img" aria-label="Lowest pricing">
    <g>
        <g clip-path="url(#5ad3fb40-387d-471b-ae22-2f494b3a9226_comp-lddgz6xr)">
            <path fill-opacity="0.6" fill="#F1F1FF" d="M127 189c49.153 0 89-39.847 89-89s-39.847-89-89-89-89 39.847-89 89 39.847 89 89 89Z"></path>
            <path stroke-width="2px" stroke="#202058" fill="#FFFFFF" d="M197 38H45c-9.389 0-17 7.611-17 17v88c0 9.389 7.611 17 17 17h152c9.389 0 17-7.611 17-17V55c0-9.389-7.611-17-17-17Z"></path>
            <path fill="#F0F0FF" d="M121 60H46a8 8 0 0 0-8 8v71a8 8 0 0 0 8 8h75a8 8 0 0 0 8-8V68a8 8 0 0 0-8-8Z"></path>
            <g filter="url(#cd5e9161-d179-48ed-a3df-fe44294139ad_comp-lddgz6xr)">
                <path fill-opacity="0.01" fill="#14aee6" d="M84 81c-12.683 0-23 10.317-23 23s10.317 23 23 23 23-10.317 23-23-10.317-23-23-23Zm-2.986 31.227c-1.333.784-3.014-.177-3.014-1.724V97.497c0-1.547 1.68-2.508 3.014-1.724l11.055 6.503c1.315.773 1.315 2.675 0 3.448l-11.055 6.503Z"></path>
            </g>
            <path fill="#FFFFFF" d="M84 118.097c7.785 0 14.097-6.312 14.097-14.097 0-7.785-6.311-14.097-14.097-14.097-7.785 0-14.097 6.312-14.097 14.097 0 7.785 6.312 14.097 14.097 14.097Z"></path>
            <path fill="#14aee6" d="M84 81c-12.683 0-23 10.317-23 23s10.317 23 23 23 23-10.317 23-23-10.317-23-23-23Zm-2.986 31.227c-1.333.784-3.014-.177-3.014-1.724V97.497c0-1.547 1.68-2.508 3.014-1.724l11.055 6.503c1.315.773 1.315 2.675 0 3.448l-11.055 6.503Z"></path>
            <path fill="#14aee6" d="M44 54a4 4 0 1 0 0-8 4 4 0 0 0 0 8Z"></path>
            <path fill="#ECECF4" d="M56 54a4 4 0 1 0 0-8 4 4 0 0 0 0 8Z"></path>
            <path fill="#F6F6FA" d="M200 60h-59a4 4 0 0 0-4 4v24a4 4 0 0 0 4 4h59a4 4 0 0 0 4-4V64a4 4 0 0 0-4-4Z"></path>
            <path fill="#F6F6FA" d="M200 98h-59a4 4 0 0 0-4 4v24a4 4 0 0 0 4 4h59a4 4 0 0 0 4-4v-24a4 4 0 0 0-4-4Z"></path>
            <g filter="url(#0c5ead0b-2d23-47d9-babf-a0184fa56f92_comp-lddgz6xr)">
                <path fill-opacity="0.01" fill="#14aee6" d="M200 138h-59a4 4 0 0 0-4 4v27a4 4 0 0 0 4 4h59a4 4 0 0 0 4-4v-27a4 4 0 0 0-4-4Z"></path>
            </g>
            <path fill="#14aee6" d="M200 138h-59a4 4 0 0 0-4 4v27a4 4 0 0 0 4 4h59a4 4 0 0 0 4-4v-27a4 4 0 0 0-4-4Z"></path>
            <path fill="#ECECF4" d="M68 54a4 4 0 1 0 0-8 4 4 0 0 0 0 8Z"></path>
            <g filter="url(#736fc3b2-1511-47c9-94b3-624d154822b9_comp-lddgz6xr)">
                <path fill-opacity="0.01" fill="#FFFFFF" d="M240 20h-72c-5.523 0-10 4.477-10 10v36c0 5.523 4.477 10 10 10h72c5.523 0 10-4.477 10-10V30c0-5.523-4.477-10-10-10Z"></path>
            </g>
            <path fill="#FFFFFF" d="M240 20h-72c-5.523 0-10 4.477-10 10v36c0 5.523 4.477 10 10 10h72c5.523 0 10-4.477 10-10V30c0-5.523-4.477-10-10-10Z"></path>
            <path stroke-width="2px" stroke="#202058" d="M240 21h-72a9 9 0 0 0-9 9v36a9 9 0 0 0 9 9h72a9 9 0 0 0 9-9V30a9 9 0 0 0-9-9Z" fill="none"></path>
            <g filter="url(#8aebe092-ef94-4b67-b6da-ab1698522d54_comp-lddgz6xr)">
                <path fill-opacity="0.01" fill="#14aee6" d="M175 30c-4.411 0-8 3.589-8 8s3.589 8 8 8 8-3.589 8-8-3.589-8-8-8Zm-.747 10.69a.89.89 0 0 1-1.34-.766v-3.848a.89.89 0 0 1 1.34-.766l3.271 1.924a.89.89 0 0 1 0 1.532l-3.271 1.924Z"></path>
            </g>
            <path fill="#FFFFFF" d="M175 42.903a4.903 4.903 0 1 0 0-9.806 4.903 4.903 0 0 0 0 9.806Z"></path>
            <path fill="#14aee6" d="M175 30c-4.411 0-8 3.589-8 8s3.589 8 8 8 8-3.589 8-8-3.589-8-8-8Zm-.747 10.69a.89.89 0 0 1-1.34-.766v-3.848a.89.89 0 0 1 1.34-.766l3.271 1.924a.89.89 0 0 1 0 1.532l-3.271 1.924Z"></path>
            <path fill="#14aee6" d="M207.5 33h-20a1.5 1.5 0 0 0 0 3h20a1.5 1.5 0 0 0 0-3Z"></path>
            <path fill="#ECECF4" d="M217.5 40h-30a1.5 1.5 0 0 0 0 3h30a1.5 1.5 0 0 0 0-3Z"></path>
            <path fill="#ECECF4" d="M190.5 50h-22a1.5 1.5 0 0 0 0 3h22a1.5 1.5 0 0 0 0-3Z"></path>
            <path fill="#ECECF4" d="M211.5 57h-43a1.5 1.5 0 0 0 0 3h43a1.5 1.5 0 0 0 0-3Z"></path>
            <path fill="#ECECF4" d="M177.5 64h-9a1.5 1.5 0 0 0 0 3h9a1.5 1.5 0 0 0 0-3Z"></path>
            <path fill="#ECECF4" d="M198.5 64h-14a1.5 1.5 0 0 0 0 3h14a1.5 1.5 0 0 0 0-3Z"></path>
            <path fill="#ECECF4" d="M239.5 50h-42a1.5 1.5 0 0 0 0 3h42a1.5 1.5 0 0 0 0-3Z"></path>
            <path fill="#14aee6" d="M225.5 57h-7a1.5 1.5 0 0 0 0 3h7a1.5 1.5 0 0 0 0-3Z"></path>
            <path fill="#ECECF4" d="M231.5 40h-7a1.5 1.5 0 0 0 0 3h7a1.5 1.5 0 0 0 0-3Z"></path>
            <path fill="#FFFFFF" d="M180.5 147h-35a1.5 1.5 0 0 0 0 3h35a1.5 1.5 0 0 0 0-3Z"></path>
            <path fill="#FFFFFF" d="M196.5 154h-51a1.5 1.5 0 0 0 0 3h51a1.5 1.5 0 0 0 0-3Z"></path>
            <path fill="#FFFFFF" d="M164.5 161h-19a1.5 1.5 0 0 0 0 3h19a1.5 1.5 0 0 0 0-3Z"></path>
            <g filter="url(#ba9c6ac5-921d-4db0-9b3b-310ac282458c_comp-lddgz6xr)">
                <path fill-opacity="0.01" fill="#FFFFFF" d="M62.509 129H17.772A8.772 8.772 0 0 0 9 137.772v32.456A8.772 8.772 0 0 0 17.772 179h44.737a8.772 8.772 0 0 0 8.772-8.772v-32.456A8.772 8.772 0 0 0 62.509 129Z"></path>
            </g>
            <path fill="#FFFFFF" d="M62.509 129H17.772A8.772 8.772 0 0 0 9 137.772v32.456A8.772 8.772 0 0 0 17.772 179h44.737a8.772 8.772 0 0 0 8.772-8.772v-32.456A8.772 8.772 0 0 0 62.509 129Z"></path>
            <path stroke-width="2px" stroke="#202058" d="M62.509 130H17.772A7.772 7.772 0 0 0 10 137.772v32.456A7.772 7.772 0 0 0 17.772 178h44.737a7.772 7.772 0 0 0 7.772-7.772v-32.456A7.772 7.772 0 0 0 62.509 130Z" fill="none"></path>
            <path fill="#F6F6FA" d="M60.191 138h-40.05A3.14 3.14 0 0 0 17 141.141v21.988a3.142 3.142 0 0 0 3.141 3.142h40.05a3.142 3.142 0 0 0 3.142-3.142v-21.988A3.14 3.14 0 0 0 60.19 138Z"></path>
            <g filter="url(#c6a79901-ad7d-4105-9efe-1e65fe833a4a_comp-lddgz6xr)">
                <path fill-opacity="0.01" fill="#14aee6" d="M40.559 145.067c-3.898 0-7.068 3.171-7.068 7.068s3.17 7.068 7.068 7.068c3.897 0 7.068-3.171 7.068-7.068s-3.17-7.068-7.068-7.068Zm-.792 9.522a.698.698 0 0 1-1.052-.602v-3.704c0-.54.587-.876 1.052-.602l3.15 1.852a.699.699 0 0 1 0 1.204l-3.15 1.852Z"></path>
            </g>
            <path fill="#FFFFFF" d="M40.56 156.467a4.332 4.332 0 1 0-.002-8.664 4.332 4.332 0 0 0 .001 8.664Z"></path>
            <path fill="#14aee6" d="M40.559 145.067c-3.898 0-7.068 3.171-7.068 7.068s3.17 7.068 7.068 7.068c3.897 0 7.068-3.171 7.068-7.068s-3.17-7.068-7.068-7.068Zm-.792 9.522a.698.698 0 0 1-1.052-.602v-3.704c0-.54.587-.876 1.052-.602l3.15 1.852a.699.699 0 0 1 0 1.204l-3.15 1.852Z"></path>
            <path fill="#ECECF4" d="M62.155 168.627H18.178a1.178 1.178 0 1 0 0 2.356h43.977a1.178 1.178 0 1 0 0-2.356Z"></path>
            <path fill="#14aee6" d="M44.093 168.627H18.178a1.178 1.178 0 1 0 0 2.356h25.915a1.178 1.178 0 1 0 0-2.356Z"></path>
        </g>
        <defs fill="none">
            <filter color-interpolation-filters="sRGB" filterUnits="userSpaceOnUse" height="62" width="62" y="76" x="53" id="cd5e9161-d179-48ed-a3df-fe44294139ad_comp-lddgz6xr">
                <feFlood result="BackgroundImageFix" flood-opacity="0"></feFlood>
                <feColorMatrix values="0 0 0 0 0 0 0 0 0 0 0 0 0 0 0 0 0 0 127 0" in="SourceAlpha"></feColorMatrix>
                <feOffset dy="3"></feOffset>
                <feGaussianBlur stdDeviation="4"></feGaussianBlur>
                <feColorMatrix values="0 0 0 0 0.203922 0 0 0 0 0.203922 0 0 0 0 1 0 0 0 0.32 0"></feColorMatrix>
                <feBlend result="effect1_dropShadow" in2="BackgroundImageFix"></feBlend>
                <feBlend result="shape" in2="effect1_dropShadow" in="SourceGraphic"></feBlend>
            </filter>
            <filter color-interpolation-filters="sRGB" filterUnits="userSpaceOnUse" height="55" width="87" y="133" x="127" id="0c5ead0b-2d23-47d9-babf-a0184fa56f92_comp-lddgz6xr">
                <feFlood result="BackgroundImageFix" flood-opacity="0"></feFlood>
                <feColorMatrix values="0 0 0 0 0 0 0 0 0 0 0 0 0 0 0 0 0 0 127 0" in="SourceAlpha"></feColorMatrix>
                <feOffset dy="5"></feOffset>
                <feGaussianBlur stdDeviation="5"></feGaussianBlur>
                <feColorMatrix values="0 0 0 0 0.203922 0 0 0 0 0.203922 0 0 0 0 1 0 0 0 0.19 0"></feColorMatrix>
                <feBlend result="effect1_dropShadow" in2="BackgroundImageFix"></feBlend>
                <feBlend result="shape" in2="effect1_dropShadow" in="SourceGraphic"></feBlend>
            </filter>
            <filter color-interpolation-filters="sRGB" filterUnits="userSpaceOnUse" height="78" width="114" y="15" x="147" id="736fc3b2-1511-47c9-94b3-624d154822b9_comp-lddgz6xr">
                <feFlood result="BackgroundImageFix" flood-opacity="0"></feFlood>
                <feColorMatrix values="0 0 0 0 0 0 0 0 0 0 0 0 0 0 0 0 0 0 127 0" in="SourceAlpha"></feColorMatrix>
                <feOffset dy="6"></feOffset>
                <feGaussianBlur stdDeviation="5.5"></feGaussianBlur>
                <feColorMatrix values="0 0 0 0 0.203922 0 0 0 0 0.203922 0 0 0 0 1 0 0 0 0.12 0"></feColorMatrix>
                <feBlend result="effect1_dropShadow" in2="BackgroundImageFix"></feBlend>
                <feBlend result="shape" in2="effect1_dropShadow" in="SourceGraphic"></feBlend>
            </filter>
            <filter color-interpolation-filters="sRGB" filterUnits="userSpaceOnUse" height="24.889" width="24.889" y="26.889" x="162.556" id="8aebe092-ef94-4b67-b6da-ab1698522d54_comp-lddgz6xr">
                <feFlood result="BackgroundImageFix" flood-opacity="0"></feFlood>
                <feColorMatrix values="0 0 0 0 0 0 0 0 0 0 0 0 0 0 0 0 0 0 127 0" in="SourceAlpha"></feColorMatrix>
                <feOffset dy="1.333"></feOffset>
                <feGaussianBlur stdDeviation="2.222"></feGaussianBlur>
                <feColorMatrix values="0 0 0 0 0.203922 0 0 0 0 0.203922 0 0 0 0 1 0 0 0 0.25 0"></feColorMatrix>
                <feBlend result="effect1_dropShadow" in2="BackgroundImageFix"></feBlend>
                <feBlend result="shape" in2="effect1_dropShadow" in="SourceGraphic"></feBlend>
            </filter>
            <filter color-interpolation-filters="sRGB" filterUnits="userSpaceOnUse" height="69.298" width="81.579" y="124.614" x="-.649" id="ba9c6ac5-921d-4db0-9b3b-310ac282458c_comp-lddgz6xr">
                <feFlood result="BackgroundImageFix" flood-opacity="0"></feFlood>
                <feColorMatrix values="0 0 0 0 0 0 0 0 0 0 0 0 0 0 0 0 0 0 127 0" in="SourceAlpha"></feColorMatrix>
                <feOffset dy="5.263"></feOffset>
                <feGaussianBlur stdDeviation="4.825"></feGaussianBlur>
                <feColorMatrix values="0 0 0 0 0.203922 0 0 0 0 0.203922 0 0 0 0 1 0 0 0 0.12 0"></feColorMatrix>
                <feBlend result="effect1_dropShadow" in2="BackgroundImageFix"></feBlend>
                <feBlend result="shape" in2="effect1_dropShadow" in="SourceGraphic"></feBlend>
            </filter>
            <filter color-interpolation-filters="sRGB" filterUnits="userSpaceOnUse" height="21.116" width="21.116" y="142.624" x="30.001" id="c6a79901-ad7d-4105-9efe-1e65fe833a4a_comp-lddgz6xr">
                <feFlood result="BackgroundImageFix" flood-opacity="0"></feFlood>
                <feColorMatrix values="0 0 0 0 0 0 0 0 0 0 0 0 0 0 0 0 0 0 127 0" in="SourceAlpha"></feColorMatrix>
                <feOffset dy="1.047"></feOffset>
                <feGaussianBlur stdDeviation="1.745"></feGaussianBlur>
                <feColorMatrix values="0 0 0 0 0.203922 0 0 0 0 0.203922 0 0 0 0 1 0 0 0 0.25 0"></feColorMatrix>
                <feBlend result="effect1_dropShadow" in2="BackgroundImageFix"></feBlend>
                <feBlend result="shape" in2="effect1_dropShadow" in="SourceGraphic"></feBlend>
            </filter>
            <clipPath id="5ad3fb40-387d-471b-ae22-2f494b3a9226_comp-lddgz6xr">
                <path fill="#ffffff" d="M258 0v201H0V0h258z"></path>
            </clipPath>
        </defs>
    </g>
</svg>