<svg xmlns:xlink="http://www.w3.org/1999/xlink" preserveAspectRatio="xMidYMid meet" data-bbox="3.5 1.5 84 84" xmlns="http://www.w3.org/2000/svg" viewBox="0 0 91 87" height="87" width="91" data-type="ugc" role="presentation" aria-hidden="true">
    <g>
        <path fill="#F6F6FF" d="M45.5 85.5c23.196 0 42-18.804 42-42s-18.804-42-42-42-42 18.804-42 42 18.804 42 42 42Z"></path>
        <path stroke-linejoin="round" stroke-width="2px" stroke="#202058" fill="#FFFFFF" d="M22.338 42.061a1 1 0 0 0 .736-.964v-.262a1 1 0 0 0-.458-.84c-2.692-1.737-4.55-5.02-4.55-8.835 0-5.723 4.136-10.17 9.015-10.17 4.877 0 9.014 4.447 9.014 10.17 0 3.814-1.857 7.098-4.549 8.835a1 1 0 0 0-.458.84v.261a1 1 0 0 0 .736.965c6.854 1.874 11.757 7.667 11.757 14.427 0 .045-.02.189-.188.441-.164.247-.434.544-.829.875-.789.66-1.978 1.372-3.503 2.027-3.044 1.307-7.285 2.332-11.98 2.332-4.676 0-8.911-1.156-11.964-2.535-1.528-.69-2.73-1.423-3.533-2.071-.403-.326-.68-.61-.846-.833-.122-.163-.151-.25-.157-.265.014-6.746 4.913-12.526 11.757-14.398Z"></path>
        <path stroke-linejoin="round" stroke-width="2px" stroke="#202058" fill="#FFFFFF" d="M59.266 41.977a1 1 0 0 0 .736-.965v-.26a1 1 0 0 0-.458-.84c-2.68-1.73-4.53-4.999-4.53-8.797 0-5.698 4.117-10.125 8.975-10.125 4.855 0 8.974 4.427 8.974 10.125 0 3.798-1.85 7.068-4.53 8.797a1 1 0 0 0-.457.84v.26a1 1 0 0 0 .736.964c6.825 1.867 11.707 7.636 11.707 14.366 0 .044-.02.186-.187.437-.163.246-.431.541-.824.87-.786.658-1.97 1.366-3.489 2.019-3.031 1.302-7.255 2.322-11.931 2.322-4.656 0-8.873-1.15-11.913-2.524-1.522-.687-2.72-1.418-3.519-2.063-.4-.324-.676-.606-.842-.828a.98.98 0 0 1-.155-.263c.014-6.717 4.892-12.471 11.707-14.335Z"></path>
        <path stroke-linejoin="round" stroke-width="2px" stroke="#202058" fill="#FFFFFF" d="M38.33 42.29a1 1 0 0 0 .737-.965v-.385a1 1 0 0 0-.458-.84c-4.093-2.64-6.894-7.614-6.894-13.364 0-8.611 6.234-15.399 13.703-15.399 7.466 0 13.702 6.788 13.702 15.399 0 5.75-2.8 10.724-6.893 13.365a1 1 0 0 0-.458.84v.383a1 1 0 0 0 .736.965C62.74 45.088 70.11 53.758 70.11 63.92c0 .19-.078.49-.355.907-.273.411-.704.88-1.306 1.384-1.203 1.007-2.993 2.073-5.26 3.047-4.526 1.944-10.815 3.461-17.773 3.461-6.937 0-13.22-1.713-17.755-3.762-2.27-1.025-4.072-2.121-5.289-3.104-.61-.493-1.047-.936-1.323-1.306-.293-.394-.324-.596-.324-.627 0-10.162 7.37-18.831 17.605-21.632Z"></path>
        <g filter="url(#070f8013-6d6d-4888-8083-ac7b7c9fe880_comp-lddi13f2)">
            <path fill-opacity="0.01" fill="#14aee6" d="M78.097 75.828a2.759 2.759 0 0 0 3.253-.359 2.709 2.709 0 0 0 .68-3.132l-2.643-6.074a.542.542 0 0 1 .136-.618l4.78-4.258a2.73 2.73 0 0 0 .648-2.976 2.666 2.666 0 0 0-2.525-1.653h-5.4a.537.537 0 0 1-.495-.326l-2.903-6.731-.028-.06a2.792 2.792 0 0 0-5.005.06l-2.91 6.729a.54.54 0 0 1-.497.326h-5.4a2.654 2.654 0 0 0-2.519 1.642 2.745 2.745 0 0 0 .69 3.024l4.739 4.223a.538.538 0 0 1 .136.618l-2.642 6.08a2.711 2.711 0 0 0 .68 3.135 2.76 2.76 0 0 0 3.254.359l6.72-3.785a.538.538 0 0 1 .529 0l6.722 3.776Z"></path>
        </g>
        <path fill="#14aee6" d="M78.097 75.828a2.759 2.759 0 0 0 3.253-.359 2.709 2.709 0 0 0 .68-3.132l-2.643-6.074a.542.542 0 0 1 .136-.618l4.78-4.258a2.73 2.73 0 0 0 .648-2.976 2.666 2.666 0 0 0-2.525-1.653h-5.4a.537.537 0 0 1-.495-.326l-2.903-6.731-.028-.06a2.792 2.792 0 0 0-5.005.06l-2.91 6.729a.54.54 0 0 1-.497.326h-5.4a2.654 2.654 0 0 0-2.519 1.642 2.745 2.745 0 0 0 .69 3.024l4.739 4.223a.538.538 0 0 1 .136.618l-2.642 6.08a2.711 2.711 0 0 0 .68 3.135 2.76 2.76 0 0 0 3.254.359l6.72-3.785a.538.538 0 0 1 .529 0l6.722 3.776Z"></path>
        <defs fill="none">
            <filter color-interpolation-filters="sRGB" filterUnits="userSpaceOnUse" height="38.09" width="38.066" y="46.118" x="52.077" id="070f8013-6d6d-4888-8083-ac7b7c9fe880_comp-lddi13f2">
                <feFlood result="BackgroundImageFix" flood-opacity="0"></feFlood>
                <feColorMatrix values="0 0 0 0 0 0 0 0 0 0 0 0 0 0 0 0 0 0 127 0" in="SourceAlpha"></feColorMatrix>
                <feOffset dy="3"></feOffset>
                <feGaussianBlur stdDeviation="2.5"></feGaussianBlur>
                <feColorMatrix values="0 0 0 0 0.203922 0 0 0 0 0.203922 0 0 0 0 1 0 0 0 0.25 0"></feColorMatrix>
                <feBlend result="effect1_dropShadow" in2="BackgroundImageFix"></feBlend>
                <feBlend result="shape" in2="effect1_dropShadow" in="SourceGraphic"></feBlend>
            </filter>
        </defs>
    </g>
</svg>