<svg xmlns:xlink="http://www.w3.org/1999/xlink" preserveAspectRatio="xMidYMid meet" data-bbox="3.291 5.345 86.419 84.31" xmlns="http://www.w3.org/2000/svg" viewBox="0 0 93 95" height="95" width="93" data-type="ugc" role="presentation" aria-hidden="true" aria-label="">
    <g>
        <g clip-path="url(#59b475dd-6e5f-441c-b6c1-cdfd9f0df529_comp-lddi52r3)">
            <path fill="#F6F6FF" d="M43.191 85.145c22.036 0 39.9-17.864 39.9-39.9 0-22.036-17.864-39.9-39.9-39.9-22.036 0-39.9 17.864-39.9 39.9 0 22.036 17.864 39.9 39.9 39.9Z"></path>
            <path stroke-width="2px" stroke="#202058" fill="#FFFFFF" d="M61.011 15.585h-43.2c-6.075 0-11 4.925-11 11v24.72c0 6.076 4.925 11 11 11h43.2c6.075 0 11-4.924 11-11v-24.72c0-6.075-4.925-11-11-11Z"></path>
            <g filter="url(#3727413f-fa92-4410-ad94-b281a8cb2115_comp-lddi52r3)">
                <path fill-opacity="0.01" fill="#FFFFFF" d="M67.731 22.305h-43.2c-6.075 0-11 4.925-11 11v28.08c0 6.075 4.925 11 11 11h43.2c6.075 0 11-4.925 11-11v-28.08c0-6.075-4.925-11-11-11Z"></path>
                <g filter="url(#7cc64605-a0a3-4a8d-ad7e-b65a0e10bad0_comp-lddi52r3)">
                    <path fill-opacity="0.01" fill="#14aee6" d="M81.014 77.38a8.122 8.122 0 0 1-12.137 0 7.702 7.702 0 0 1-1.266-.028.443.443 0 0 0-.337.11.436.436 0 0 0-.143.323v10.131a1.736 1.736 0 0 0 2.657 1.473l5.158-3.223 5.158 3.225a1.737 1.737 0 0 0 2.657-1.475V77.79a.435.435 0 0 0-.477-.433 7.482 7.482 0 0 1-1.27.023Z"></path>
                    <path fill-opacity="0.01" fill="#14aee6" d="M86.742 57.85a5.506 5.506 0 0 0-6.91-6.909 5.505 5.505 0 0 0-9.771 0 5.503 5.503 0 0 0-6.909 6.909 5.503 5.503 0 0 0 0 9.768 5.506 5.506 0 0 0 6.91 6.91 5.504 5.504 0 0 0 9.771 0 5.503 5.503 0 0 0 6.909-6.908 5.504 5.504 0 0 0 0-9.77ZM71.428 68.27a.797.797 0 0 1-1.134-.995l1.353-3.083a.434.434 0 0 0-.094-.483l-2.432-2.386a.743.743 0 0 1 .521-1.299h2.764a.435.435 0 0 0 .394-.25l1.452-3.117a.804.804 0 0 1 1.43 0l1.44 3.126a.432.432 0 0 0 .393.25h2.763a.744.744 0 0 1 .52 1.299l-2.43 2.386a.434.434 0 0 0-.094.483l1.344 3.084a.796.796 0 0 1-1.134.995l-3.319-1.867a.436.436 0 0 0-.427 0l-3.31 1.857Z"></path>
                </g>
            </g>
            <path stroke-width="2px" stroke="#202058" fill="#FFFFFF" d="M67.731 22.305h-43.2c-6.075 0-11 4.925-11 11v28.08c0 6.075 4.925 11 11 11h43.2c6.075 0 11-4.925 11-11v-28.08c0-6.075-4.925-11-11-11Z"></path>
            <path fill="#B0B0D0" d="M59.571 29.706h-26.04a2.52 2.52 0 0 0 0 5.04h26.04a2.52 2.52 0 1 0 0-5.04Z"></path>
            <path fill="#DFDFEB" d="M65.451 38.945h-38.64a1.68 1.68 0 0 0 0 3.36h38.64a1.68 1.68 0 1 0 0-3.36Z"></path>
            <path fill="#DFDFEB" d="M56.211 45.666h-19.32a1.68 1.68 0 1 0 0 3.36h19.32a1.68 1.68 0 1 0 0-3.36Z"></path>
            <path fill="#C4C4D2" d="M40.251 62.465h-15.12a1.68 1.68 0 1 0 0 3.36h15.12a1.68 1.68 0 1 0 0-3.36Z"></path>
            <path fill="#C4C4D2" d="M67.131 62.465h-15.12a1.68 1.68 0 0 0 0 3.36h15.12a1.68 1.68 0 1 0 0-3.36Z"></path>
            <g filter="url(#dc4958bc-6792-4d30-97cb-dc9b1e22606f_comp-lddi52r3)">
                <path fill-opacity="0.01" fill="#14aee6" d="M81.014 77.38a8.122 8.122 0 0 1-12.137 0 7.702 7.702 0 0 1-1.266-.028.443.443 0 0 0-.337.11.436.436 0 0 0-.143.323v10.131a1.736 1.736 0 0 0 2.657 1.473l5.158-3.223 5.158 3.225a1.737 1.737 0 0 0 2.657-1.475V77.79a.435.435 0 0 0-.477-.433 7.482 7.482 0 0 1-1.27.023Z"></path>
                <path fill-opacity="0.01" fill="#FFFFFF" d="M75.17 71.076a7.592 7.592 0 1 0 0-15.184 7.592 7.592 0 0 0 0 15.184Z"></path>
                <path fill-opacity="0.01" fill="#14aee6" d="M86.742 57.85a5.506 5.506 0 0 0-6.91-6.909 5.505 5.505 0 0 0-9.771 0 5.503 5.503 0 0 0-6.909 6.909 5.503 5.503 0 0 0 0 9.768 5.506 5.506 0 0 0 6.91 6.91 5.504 5.504 0 0 0 9.771 0 5.503 5.503 0 0 0 6.909-6.908 5.504 5.504 0 0 0 0-9.77ZM71.428 68.27a.797.797 0 0 1-1.134-.995l1.353-3.083a.434.434 0 0 0-.094-.483l-2.432-2.386a.743.743 0 0 1 .521-1.299h2.764a.435.435 0 0 0 .394-.25l1.452-3.117a.804.804 0 0 1 1.43 0l1.44 3.126a.432.432 0 0 0 .393.25h2.763a.744.744 0 0 1 .52 1.299l-2.43 2.386a.434.434 0 0 0-.094.483l1.344 3.084a.796.796 0 0 1-1.134.995l-3.319-1.867a.436.436 0 0 0-.427 0l-3.31 1.857Z"></path>
            </g>
            <path fill="#14aee6" d="M81.014 77.38a8.122 8.122 0 0 1-12.137 0 7.702 7.702 0 0 1-1.266-.028.443.443 0 0 0-.337.11.436.436 0 0 0-.143.323v10.131a1.736 1.736 0 0 0 2.657 1.473l5.158-3.223 5.158 3.225a1.737 1.737 0 0 0 2.657-1.475V77.79a.435.435 0 0 0-.477-.433 7.482 7.482 0 0 1-1.27.023Z"></path>
            <path fill="#FFFFFF" d="M75.17 71.076a7.592 7.592 0 1 0 0-15.184 7.592 7.592 0 0 0 0 15.184Z"></path>
            <path fill="#14aee6" d="M86.742 57.85a5.506 5.506 0 0 0-6.91-6.909 5.505 5.505 0 0 0-9.771 0 5.503 5.503 0 0 0-6.909 6.909 5.503 5.503 0 0 0 0 9.768 5.506 5.506 0 0 0 6.91 6.91 5.504 5.504 0 0 0 9.771 0 5.503 5.503 0 0 0 6.909-6.908 5.504 5.504 0 0 0 0-9.77ZM71.428 68.27a.797.797 0 0 1-1.134-.995l1.353-3.083a.434.434 0 0 0-.094-.483l-2.432-2.386a.743.743 0 0 1 .521-1.299h2.764a.435.435 0 0 0 .394-.25l1.452-3.117a.804.804 0 0 1 1.43 0l1.44 3.126a.432.432 0 0 0 .393.25h2.763a.744.744 0 0 1 .52 1.299l-2.43 2.386a.434.434 0 0 0-.094.483l1.344 3.084a.796.796 0 0 1-1.134.995l-3.319-1.867a.436.436 0 0 0-.427 0l-3.31 1.857Z"></path>
        </g>
        <defs fill="none">
            <filter color-interpolation-filters="sRGB" filterUnits="userSpaceOnUse" height="79.35" width="88.177" y="18.305" x="7.531" id="3727413f-fa92-4410-ad94-b281a8cb2115_comp-lddi52r3">
                <feFlood result="BackgroundImageFix" flood-opacity="0"></feFlood>
                <feColorMatrix values="0 0 0 0 0 0 0 0 0 0 0 0 0 0 0 0 0 0 127 0" in="SourceAlpha"></feColorMatrix>
                <feOffset dy="2"></feOffset>
                <feGaussianBlur stdDeviation="3"></feGaussianBlur>
                <feColorMatrix values="0 0 0 0 0.203922 0 0 0 0 0.203922 0 0 0 0 1 0 0 0 0.17 0"></feColorMatrix>
                <feBlend result="effect1_dropShadow" in2="BackgroundImageFix"></feBlend>
                <feBlend result="shape" in2="effect1_dropShadow" in="SourceGraphic"></feBlend>
            </filter>
            <filter color-interpolation-filters="sRGB" filterUnits="userSpaceOnUse" height="47.681" width="35.524" y="45.974" x="57.185" id="7cc64605-a0a3-4a8d-ad7e-b65a0e10bad0_comp-lddi52r3">
                <feFlood result="BackgroundImageFix" flood-opacity="0"></feFlood>
                <feColorMatrix values="0 0 0 0 0 0 0 0 0 0 0 0 0 0 0 0 0 0 127 0" in="SourceAlpha"></feColorMatrix>
                <feOffset dy="1"></feOffset>
                <feGaussianBlur stdDeviation="1.5"></feGaussianBlur>
                <feColorMatrix values="0 0 0 0 0.203922 0 0 0 0 0.203922 0 0 0 0 1 0 0 0 0.12 0"></feColorMatrix>
                <feBlend result="effect1_dropShadow" in2="BackgroundImageFix"></feBlend>
                <feBlend result="shape" in2="effect1_dropShadow" in="SourceGraphic"></feBlend>
            </filter>
            <filter color-interpolation-filters="sRGB" filterUnits="userSpaceOnUse" height="47.681" width="35.524" y="45.974" x="57.185" id="dc4958bc-6792-4d30-97cb-dc9b1e22606f_comp-lddi52r3">
                <feFlood result="BackgroundImageFix" flood-opacity="0"></feFlood>
                <feColorMatrix values="0 0 0 0 0 0 0 0 0 0 0 0 0 0 0 0 0 0 127 0" in="SourceAlpha"></feColorMatrix>
                <feOffset dy="1"></feOffset>
                <feGaussianBlur stdDeviation="1.5"></feGaussianBlur>
                <feColorMatrix values="0 0 0 0 0.203922 0 0 0 0 0.203922 0 0 0 0 1 0 0 0 0.12 0"></feColorMatrix>
                <feBlend result="effect1_dropShadow" in2="BackgroundImageFix"></feBlend>
                <feBlend result="shape" in2="effect1_dropShadow" in="SourceGraphic"></feBlend>
            </filter>
            <clipPath id="59b475dd-6e5f-441c-b6c1-cdfd9f0df529_comp-lddi52r3">
                <path transform="translate(0 .5)" fill="#ffffff" d="M93 0v94H0V0h93z"></path>
            </clipPath>
        </defs>
    </g>
</svg>