<svg xmlns:xlink="http://www.w3.org/1999/xlink" preserveAspectRatio="xMidYMid meet" data-bbox="6 3.999 82.999 87.103" xmlns="http://www.w3.org/2000/svg" viewBox="0 0 95 95" height="95" width="95" data-type="ugc" role="presentation" aria-hidden="true" aria-label="">
    <g>
        <g clip-path="url(#4b8ed9bc-cbef-42c8-923e-d2d050d4db4b_comp-lddi8ahb)">
            <path fill="#F6F6FF" d="M48 78.63c20.57 0 37.246-16.675 37.246-37.245C85.246 20.815 68.57 4.14 48 4.14c-20.57 0-37.245 16.675-37.245 37.245C10.755 61.955 27.43 78.63 48 78.63Z"></path>
            <path stroke-width="2px" stroke="#202058" d="M47.792 69.12V58.818" fill="none"></path>
            <path stroke-width="2px" stroke="#202058" d="m22.142 55.972 8.921-5.151" fill="none"></path>
            <path stroke-width="2px" stroke="#202058" fill="#FFFFFF" d="M48 60.196c10.389 0 18.811-8.422 18.811-18.811 0-10.39-8.422-18.812-18.811-18.812-10.39 0-18.811 8.422-18.811 18.812 0 10.389 8.422 18.81 18.81 18.81Z"></path>
            <g filter="url(#e48fc7d4-2449-4955-8259-0e3cc6675524_comp-lddi8ahb)">
                <path fill-opacity="0.01" fill="#14aee6" d="M16.302 70.705c5.69 0 10.302-4.612 10.302-10.301 0-5.69-4.613-10.302-10.302-10.302C10.612 50.102 6 54.714 6 60.404c0 5.69 4.612 10.301 10.302 10.301Z"></path>
            </g>
            <path fill="#14aee6" d="M16.302 70.705c5.69 0 10.302-4.612 10.302-10.301 0-5.69-4.613-10.302-10.302-10.302C10.612 50.102 6 54.714 6 60.404c0 5.69 4.612 10.301 10.302 10.301Z"></path>
            <path stroke-width="2px" stroke="#202058" fill="#FFFFFF" d="M48.793 91.102c6.45 0 11.679-5.23 11.679-11.68 0-6.45-5.23-11.679-11.68-11.679-6.45 0-11.679 5.23-11.679 11.68 0 6.45 5.23 11.679 11.68 11.679Z"></path>
            <path stroke-width="2px" stroke="#202058" d="m33.791 28.589-8.717-9.51" fill="none"></path>
            <path stroke-width="2px" stroke="#202058" d="m78.819 50.615-12.724-2.127" fill="none"></path>
            <path stroke-width="2px" stroke="#202058" d="m60.233 27.48 9.51-8.717" fill="none"></path>
            <g filter="url(#829c8007-41b6-4037-aaa6-0736dd325109_comp-lddi8ahb)">
                <path fill-opacity="0.01" fill="#14aee6" d="M63.85 16.026a8.717 8.717 0 1 0 17.433 0 8.717 8.717 0 0 0-17.434 0Z"></path>
            </g>
            <path fill="#14aee6" d="M63.85 16.026a8.717 8.717 0 1 0 17.433 0 8.717 8.717 0 0 0-17.434 0Z"></path>
            <path stroke-width="2px" stroke="#202058" fill="#FFFFFF" d="M81.282 59.404a7.717 7.717 0 1 0 0-15.434 7.717 7.717 0 0 0 0 15.434Z"></path>
            <g filter="url(#7e9467f4-179e-42bb-a34d-a37e46eba0ba_comp-lddi8ahb)">
                <path fill-opacity="0.01" fill="#14aee6" d="M56.196 48.956c0 1.155-3.67 3.127-8.197 3.127-4.526 0-8.195-2.234-8.195-3.127 0-4.153 3.67-7.52 8.196-7.52 4.527 0 8.196 3.367 8.196 7.52Z"></path>
                <path fill-opacity="0.01" fill="#14aee6" d="M53.043 35.728a5.041 5.041 0 1 1-10.083.001 5.041 5.041 0 0 1 10.083 0Z"></path>
            </g>
            <path fill="#14aee6" d="M56.196 48.956c0 1.155-3.67 3.127-8.197 3.127-4.526 0-8.195-2.234-8.195-3.127 0-4.153 3.67-7.52 8.196-7.52 4.527 0 8.196 3.367 8.196 7.52Z"></path>
            <path fill="#14aee6" d="M53.043 35.728a5.041 5.041 0 1 1-10.083.001 5.041 5.041 0 0 1 10.083 0Z"></path>
            <path stroke-width="2px" stroke="#202058" fill="#FFFFFF" d="M20.09 22.158A9.08 9.08 0 1 0 20.09 4a9.08 9.08 0 0 0 0 18.158Z"></path>
        </g>
        <defs fill="none">
            <filter color-interpolation-filters="sRGB" filterUnits="userSpaceOnUse" height="36.604" width="36.604" y="46.102" x="-2" id="e48fc7d4-2449-4955-8259-0e3cc6675524_comp-lddi8ahb">
                <feFlood result="BackgroundImageFix" flood-opacity="0"></feFlood>
                <feColorMatrix values="0 0 0 0 0 0 0 0 0 0 0 0 0 0 0 0 0 0 127 0" in="SourceAlpha"></feColorMatrix>
                <feOffset dy="4"></feOffset>
                <feGaussianBlur stdDeviation="4"></feGaussianBlur>
                <feColorMatrix values="0 0 0 0 0.203922 0 0 0 0 0.203922 0 0 0 0 1 0 0 0 0.31 0"></feColorMatrix>
                <feBlend result="effect1_dropShadow" in2="BackgroundImageFix"></feBlend>
                <feBlend result="shape" in2="effect1_dropShadow" in="SourceGraphic"></feBlend>
            </filter>
            <filter color-interpolation-filters="sRGB" filterUnits="userSpaceOnUse" height="33.434" width="33.434" y="3.309" x="55.849" id="829c8007-41b6-4037-aaa6-0736dd325109_comp-lddi8ahb">
                <feFlood result="BackgroundImageFix" flood-opacity="0"></feFlood>
                <feColorMatrix values="0 0 0 0 0 0 0 0 0 0 0 0 0 0 0 0 0 0 127 0" in="SourceAlpha"></feColorMatrix>
                <feOffset dy="4"></feOffset>
                <feGaussianBlur stdDeviation="4"></feGaussianBlur>
                <feColorMatrix values="0 0 0 0 0.203922 0 0 0 0 0.203922 0 0 0 0 1 0 0 0 0.31 0"></feColorMatrix>
                <feBlend result="effect1_dropShadow" in2="BackgroundImageFix"></feBlend>
                <feBlend result="shape" in2="effect1_dropShadow" in="SourceGraphic"></feBlend>
            </filter>
            <filter color-interpolation-filters="sRGB" filterUnits="userSpaceOnUse" height="29.396" width="24.392" y="29.686" x="35.804" id="7e9467f4-179e-42bb-a34d-a37e46eba0ba_comp-lddi8ahb">
                <feFlood result="BackgroundImageFix" flood-opacity="0"></feFlood>
                <feColorMatrix values="0 0 0 0 0 0 0 0 0 0 0 0 0 0 0 0 0 0 127 0" in="SourceAlpha"></feColorMatrix>
                <feOffset dy="3"></feOffset>
                <feGaussianBlur stdDeviation="2"></feGaussianBlur>
                <feColorMatrix values="0 0 0 0 0.203922 0 0 0 0 0.203922 0 0 0 0 1 0 0 0 0.26 0"></feColorMatrix>
                <feBlend result="effect1_dropShadow" in2="BackgroundImageFix"></feBlend>
                <feBlend result="shape" in2="effect1_dropShadow" in="SourceGraphic"></feBlend>
            </filter>
            <clipPath id="4b8ed9bc-cbef-42c8-923e-d2d050d4db4b_comp-lddi8ahb">
                <path fill="#ffffff" d="M95 0v95H0V0h95z"></path>
            </clipPath>
        </defs>
    </g>
</svg>