<svg xmlns:xlink="http://www.w3.org/1999/xlink" preserveAspectRatio="xMidYMid meet" data-bbox="6.1 10 82.9 75.923" xmlns="http://www.w3.org/2000/svg" viewBox="0 0 95 95" height="95" width="95" data-type="ugc" role="presentation" aria-hidden="true" aria-label="">
    <g>
        <path fill="#F6F6FF" d="M47 85.923c20.965 0 37.961-16.996 37.961-37.962C84.961 26.997 67.965 10 47 10 26.034 10 9.038 26.996 9.038 47.962c0 20.965 16.996 37.961 37.962 37.961Z"></path>
        <path stroke-width="2.2px" stroke="#202058" fill="#FFFFFF" d="m35.873 50.949-1.087-.171c-.46 2.922-.217 5.91.708 8.72l.004.01a.653.653 0 0 1-.559.861 34.35 34.35 0 0 1-10.744-1.427l-.436-.13-.402.216-2.587 1.398-.008.005-5.738 3.044h-.001a.653.653 0 0 1-.928-.768c.698-2.197 1.43-4.394 2.198-6.592l.276-.789-.687-.477a23.165 23.165 0 0 1-9.204-13.181 20.185 20.185 0 0 1 2.527-15.552 26.426 26.426 0 0 1 13.666-10.77l.01-.004a31.649 31.649 0 0 1 25.957 2.17l.007.003.007.004a23.936 23.936 0 0 1 12 15.712.653.653 0 0 1-.146.555l-.004.005-.005.006a.584.584 0 0 1-.495.207 25.648 25.648 0 0 0-19.447 6.338 18.633 18.633 0 0 0-5.962 10.396l1.08.21Zm5.418-26.354-.003.001a4.606 4.606 0 0 0-2.991 3.576 4.396 4.396 0 0 0 1.564 4.262 4.36 4.36 0 0 0 2.92 1.1 4.607 4.607 0 0 0 1.926-.413 4.607 4.607 0 0 0 .874-7.877l-.006-.004a4.607 4.607 0 0 0-4.284-.645Zm-12.496 5.547a4.607 4.607 0 1 0-8.983-1.94 4.606 4.606 0 0 0 1.604 4.265 4.396 4.396 0 0 0 2.89 1.067h.008a4.606 4.606 0 0 0 1.504-.27 4.606 4.606 0 0 0 2.977-3.122Z"></path>
        <g filter="url(#00947b91-2007-4e80-8513-2d4077fc7df5_comp-lddi8ihg)">
            <path fill-opacity="0.01" fill="#14aee6" d="M65.795 60.04c7.749 0 14.03-2.665 14.03-5.952s-6.281-5.952-14.03-5.952c-7.748 0-14.03 2.665-14.03 5.952s6.282 5.952 14.03 5.952Z"></path>
            <path fill-opacity="0.01" fill="#14aee6" d="M87.558 53.264a22.021 22.021 0 0 0-10.31-10.52 27.841 27.841 0 0 0-25 0A21.039 21.039 0 0 0 40.957 56.77a18.129 18.129 0 0 0 2.279 13.465 24.23 24.23 0 0 0 16.41 10.766 29.28 29.28 0 0 0 13.535-.737c1.202.568 2.373 1.2 3.507 1.894 1.017.56 2.034 1.157 3.086 1.648.254.056.517.056.771 0a1.753 1.753 0 0 0 1.683-2.244 199.442 199.442 0 0 0-1.683-5.295 21.74 21.74 0 0 0 6.347-7.434 18.13 18.13 0 0 0 .666-15.569ZM61.4 55.403a3.506 3.506 0 0 1-2.279 2.384 3.506 3.506 0 0 1-1.157.21 3.296 3.296 0 0 1-2.174-.806 3.507 3.507 0 0 1-1.227-3.26 3.506 3.506 0 1 1 6.838 1.472Zm14.763 0a3.506 3.506 0 0 1-2.28 2.384 3.507 3.507 0 0 1-1.157.21 3.296 3.296 0 0 1-2.173-.806 3.507 3.507 0 0 1-1.228-3.26 3.508 3.508 0 0 1 6.486-1.307 3.507 3.507 0 0 1 .352 2.779Z"></path>
        </g>
        <path fill="#14aee6" d="M65.795 60.04c7.749 0 14.03-2.665 14.03-5.952s-6.281-5.952-14.03-5.952c-7.748 0-14.03 2.665-14.03 5.952s6.282 5.952 14.03 5.952Z"></path>
        <path fill="#14aee6" d="M87.558 53.264a22.021 22.021 0 0 0-10.31-10.52 27.841 27.841 0 0 0-25 0A21.039 21.039 0 0 0 40.957 56.77a18.129 18.129 0 0 0 2.279 13.465 24.23 24.23 0 0 0 16.41 10.766 29.28 29.28 0 0 0 13.535-.737c1.202.568 2.373 1.2 3.507 1.894 1.017.56 2.034 1.157 3.086 1.648.254.056.517.056.771 0a1.753 1.753 0 0 0 1.683-2.244 199.442 199.442 0 0 0-1.683-5.295 21.74 21.74 0 0 0 6.347-7.434 18.13 18.13 0 0 0 .666-15.569ZM61.4 55.403a3.506 3.506 0 0 1-2.279 2.384 3.506 3.506 0 0 1-1.157.21 3.296 3.296 0 0 1-2.174-.806 3.507 3.507 0 0 1-1.227-3.26 3.506 3.506 0 1 1 6.838 1.472Zm14.763 0a3.506 3.506 0 0 1-2.28 2.384 3.507 3.507 0 0 1-1.157.21 3.296 3.296 0 0 1-2.173-.806 3.507 3.507 0 0 1-1.228-3.26 3.508 3.508 0 0 1 6.486-1.307 3.507 3.507 0 0 1 .352 2.779Z"></path>
        <path fill="#FFFFFF" d="M17.6 22.6h31.5l1.36 9.846-10.631 4.165-22.23-1.411V22.6Z"></path>
        <path fill="#FFFFFF" d="M73.25 52H53.057a2.02 2.02 0 1 0 0 4.038H73.25a2.02 2.02 0 0 0 0-4.038Z"></path>
        <path fill="#DFDFEB" d="M36.904 26.154H16.712a2.02 2.02 0 1 0 0 4.039h20.192a2.02 2.02 0 0 0 0-4.039Z"></path>
        <path fill="#FFFFFF" d="M65.98 60.077H53.057a2.02 2.02 0 1 0 0 4.039H65.98a2.02 2.02 0 0 0 0-4.039Z"></path>
        <path fill="#DFDFEB" d="M29.635 34.231H16.712a2.02 2.02 0 1 0 0 4.039h12.923a2.02 2.02 0 0 0 0-4.039Z"></path>
        <defs fill="none">
            <filter color-interpolation-filters="sRGB" filterUnits="userSpaceOnUse" height="56.068" width="60.474" y="38.78" x="34.525" id="00947b91-2007-4e80-8513-2d4077fc7df5_comp-lddi8ihg">
                <feFlood result="BackgroundImageFix" flood-opacity="0"></feFlood>
                <feColorMatrix values="0 0 0 0 0 0 0 0 0 0 0 0 0 0 0 0 0 0 127 0" in="SourceAlpha"></feColorMatrix>
                <feOffset dy="5"></feOffset>
                <feGaussianBlur stdDeviation="3"></feGaussianBlur>
                <feColorMatrix values="0 0 0 0 0.203922 0 0 0 0 0.203922 0 0 0 0 1 0 0 0 0.28 0"></feColorMatrix>
                <feBlend result="effect1_dropShadow" in2="BackgroundImageFix"></feBlend>
                <feBlend result="shape" in2="effect1_dropShadow" in="SourceGraphic"></feBlend>
            </filter>
        </defs>
    </g>
</svg>