<svg xmlns="http://www.w3.org/2000/svg" xmlns:xlink="http://www.w3.org/1999/xlink" width="500" zoomAndPan="magnify" viewBox="0 0 375 149.999998" height="200" preserveAspectRatio="xMidYMid meet" version="1.0"><path fill="#f7981d" d="M 151.757812 102.855469 C 137.695312 113.402344 117.773438 118.675781 100.195312 118.675781 C 75.585938 118.675781 53.90625 109.886719 37.5 94.652344 C 36.328125 93.480469 37.5 91.722656 38.671875 92.894531 C 56.835938 103.441406 78.515625 109.300781 101.367188 109.300781 C 116.601562 109.300781 133.59375 106.371094 149.414062 99.339844 C 151.757812 98.167969 153.515625 101.097656 151.757812 102.855469 Z M 151.757812 102.855469 " fill-opacity="1" fill-rule="evenodd"/><path fill="#f7981d" d="M 151.757812 102.855469 C 137.695312 113.402344 117.773438 118.675781 100.195312 118.675781 C 75.585938 118.675781 53.90625 109.886719 37.5 94.652344 C 36.328125 93.480469 37.5 91.722656 38.671875 92.894531 C 56.835938 103.441406 78.515625 109.300781 101.367188 109.300781 C 116.601562 109.300781 133.59375 106.371094 149.414062 99.339844 C 151.757812 98.167969 153.515625 101.097656 151.757812 102.855469 Z M 151.757812 102.855469 " fill-opacity="1" fill-rule="evenodd"/><path fill="#e86e00" d="M 151.757812 99.339844 C 137.695312 109.300781 117.773438 114.574219 100.78125 114.574219 C 77.929688 114.574219 57.421875 106.371094 41.601562 93.480469 C 41.015625 92.894531 39.84375 92.894531 39.257812 92.308594 C 37.5 91.136719 36.328125 92.894531 38.085938 94.066406 C 54.492188 109.300781 76.757812 118.089844 100.78125 118.089844 C 118.359375 118.089844 138.28125 112.816406 152.34375 102.269531 C 152.929688 101.683594 152.929688 99.925781 151.757812 99.339844 Z M 151.757812 99.339844 " fill-opacity="1" fill-rule="evenodd"/><path fill="#f7981d" d="M 157.03125 95.824219 C 155.273438 93.480469 145.3125 94.652344 140.625 95.238281 C 139.453125 95.238281 138.867188 94.066406 140.039062 93.480469 C 148.242188 87.621094 161.132812 89.378906 162.304688 91.136719 C 164.0625 92.894531 161.71875 106.371094 154.6875 112.230469 C 153.515625 113.402344 152.34375 112.816406 152.929688 111.644531 C 155.273438 107.542969 158.789062 98.167969 157.03125 95.824219 Z M 157.03125 95.824219 " fill-opacity="1" fill-rule="evenodd"/><path fill="#e86e00" d="M 163.476562 91.722656 C 165.234375 93.480469 162.890625 106.957031 155.859375 112.816406 C 154.6875 113.988281 153.515625 113.402344 154.101562 112.230469 C 155.859375 108.128906 159.375 98.753906 157.617188 96.410156 " fill-opacity="1" fill-rule="evenodd"/><path fill="#000000" d="M 141.210938 54.222656 L 141.210938 48.949219 C 141.210938 48.363281 141.796875 47.777344 142.382812 47.777344 L 166.992188 47.777344 C 167.578125 47.777344 168.164062 48.363281 168.164062 48.949219 L 168.164062 53.636719 C 168.164062 54.222656 167.578125 55.394531 166.40625 57.152344 L 153.515625 75.316406 C 158.203125 75.316406 162.890625 75.902344 167.578125 78.246094 C 168.75 78.832031 168.75 79.417969 168.75 80.589844 L 168.75 86.449219 C 168.75 87.035156 168.164062 88.207031 166.992188 87.621094 C 159.375 83.519531 149.414062 83.519531 141.210938 87.621094 C 140.625 88.207031 139.453125 87.035156 139.453125 86.449219 L 139.453125 81.175781 C 139.453125 80.589844 139.453125 78.832031 140.625 77.660156 L 155.273438 56.566406 L 142.382812 56.566406 C 141.796875 55.394531 141.210938 54.808594 141.210938 54.222656 Z M 52.734375 88.207031 L 45.117188 88.207031 C 44.53125 88.207031 43.945312 87.621094 43.945312 87.035156 L 43.945312 48.949219 C 43.945312 48.363281 44.53125 47.777344 45.117188 47.777344 L 52.148438 47.777344 C 52.734375 47.777344 53.320312 48.363281 53.320312 48.949219 L 53.320312 53.636719 C 55.078125 48.949219 58.59375 46.605469 63.28125 46.605469 C 67.96875 46.605469 70.898438 48.949219 72.65625 53.636719 C 74.414062 48.949219 78.515625 46.605469 82.617188 46.605469 C 85.546875 46.605469 89.0625 47.777344 91.40625 50.707031 C 93.75 53.636719 93.164062 58.324219 93.164062 62.425781 L 93.164062 86.449219 C 93.164062 87.035156 92.578125 87.621094 91.992188 87.621094 L 84.375 87.621094 C 83.789062 87.621094 83.203125 87.035156 83.203125 86.449219 L 83.203125 59.496094 C 82.617188 57.152344 80.859375 55.980469 79.101562 55.980469 C 77.34375 55.980469 75.585938 57.152344 74.414062 58.910156 C 73.828125 60.667969 73.828125 64.183594 73.828125 65.941406 L 73.828125 85.863281 C 73.828125 86.449219 73.242188 87.035156 72.65625 87.035156 L 65.039062 87.035156 C 64.453125 87.035156 63.867188 86.449219 63.867188 85.863281 L 63.867188 65.941406 C 63.867188 61.839844 64.453125 55.394531 59.179688 55.394531 C 53.90625 55.394531 53.90625 61.253906 53.90625 65.941406 L 53.90625 85.863281 C 53.90625 87.621094 53.320312 88.207031 52.734375 88.207031 Z M 189.257812 46.605469 C 200.390625 46.605469 206.25 55.980469 206.25 68.285156 C 206.25 80.003906 199.804688 89.378906 189.257812 89.378906 C 178.710938 89.378906 172.851562 80.003906 172.851562 68.285156 C 172.851562 55.980469 178.710938 46.605469 189.257812 46.605469 Z M 189.257812 54.222656 C 183.984375 54.222656 183.398438 61.839844 183.398438 66.527344 C 183.398438 71.214844 183.398438 81.175781 189.257812 81.175781 C 195.117188 81.175781 195.117188 72.972656 195.117188 68.285156 C 195.117188 65.355469 195.117188 61.253906 193.945312 58.324219 C 193.359375 55.394531 191.601562 54.222656 189.257812 54.222656 Z M 220.898438 88.207031 L 213.28125 88.207031 C 212.695312 88.207031 212.109375 87.621094 212.109375 87.035156 L 212.109375 48.949219 C 212.109375 48.363281 212.695312 47.777344 213.28125 47.777344 L 220.3125 47.777344 C 220.898438 47.777344 221.484375 48.363281 221.484375 48.949219 L 221.484375 54.808594 C 223.828125 49.535156 226.171875 47.191406 231.445312 47.191406 C 234.960938 47.191406 237.890625 48.363281 240.234375 51.878906 C 241.992188 54.808594 241.992188 60.082031 241.992188 63.597656 L 241.992188 87.621094 C 241.992188 88.207031 241.40625 88.792969 240.820312 88.792969 L 233.203125 88.792969 C 232.617188 88.792969 232.03125 88.207031 232.03125 87.621094 L 232.03125 67.113281 C 232.03125 63.011719 232.617188 57.152344 227.34375 57.152344 C 225.585938 57.152344 223.828125 58.324219 223.242188 60.082031 C 222.070312 62.425781 222.070312 64.769531 222.070312 67.113281 L 222.070312 87.621094 C 222.070312 87.621094 221.484375 88.207031 220.898438 88.207031 Z M 220.898438 88.207031 " fill-opacity="1" fill-rule="evenodd"/><path fill="#e86e00" d="M 254.296875 85.277344 C 254.296875 85.746094 254.207031 86.191406 254.027344 86.625 C 253.851562 87.054688 253.597656 87.433594 253.265625 87.765625 C 252.9375 88.09375 252.558594 88.347656 252.125 88.527344 C 251.695312 88.703125 251.246094 88.792969 250.78125 88.792969 C 250.316406 88.792969 249.867188 88.703125 249.4375 88.527344 C 249.003906 88.347656 248.625 88.09375 248.296875 87.765625 C 247.964844 87.433594 247.710938 87.054688 247.53125 86.625 C 247.355469 86.191406 247.265625 85.746094 247.265625 85.277344 C 247.265625 84.8125 247.355469 84.363281 247.53125 83.933594 C 247.710938 83.503906 247.964844 83.121094 248.296875 82.792969 C 248.625 82.464844 249.003906 82.207031 249.4375 82.03125 C 249.867188 81.851562 250.316406 81.761719 250.78125 81.761719 C 251.246094 81.761719 251.695312 81.851562 252.125 82.03125 C 252.558594 82.207031 252.9375 82.464844 253.265625 82.792969 C 253.597656 83.121094 253.851562 83.503906 254.027344 83.933594 C 254.207031 84.363281 254.296875 84.8125 254.296875 85.277344 Z M 254.296875 85.277344 " fill-opacity="1" fill-rule="nonzero"/><path fill="#f7981d" d="M 325.78125 88.207031 C 325.195312 88.207031 324.609375 87.621094 324.609375 87.035156 L 324.609375 48.949219 C 324.609375 48.363281 325.195312 47.777344 325.78125 47.777344 L 328.125 47.777344 C 328.710938 47.777344 329.296875 48.363281 329.296875 48.949219 L 329.296875 54.222656 C 331.054688 50.121094 334.570312 46.605469 339.257812 46.605469 C 343.945312 46.605469 347.460938 50.121094 349.21875 55.394531 C 350.976562 50.121094 355.078125 46.605469 360.351562 46.605469 C 363.867188 46.605469 367.382812 48.949219 369.140625 52.464844 C 370.898438 55.980469 370.898438 60.082031 370.898438 64.183594 L 370.898438 87.035156 C 370.898438 87.621094 370.3125 88.207031 369.726562 88.207031 L 366.210938 88.207031 C 365.625 88.207031 365.039062 87.621094 365.039062 87.035156 L 365.039062 64.183594 C 365.039062 61.253906 365.039062 58.324219 363.867188 55.980469 C 362.695312 53.636719 360.351562 51.878906 358.007812 51.878906 C 355.664062 51.878906 353.320312 53.636719 351.5625 56.566406 C 349.804688 60.082031 349.804688 63.011719 349.804688 66.527344 L 349.804688 87.035156 C 349.804688 87.621094 349.21875 88.207031 348.632812 88.207031 L 345.117188 88.207031 C 344.53125 88.207031 343.945312 87.621094 343.945312 87.035156 L 343.945312 62.425781 C 343.945312 60.082031 343.945312 57.738281 342.773438 55.394531 C 341.601562 53.050781 339.257812 51.878906 336.914062 51.292969 C 334.570312 51.292969 332.226562 53.050781 331.054688 55.394531 C 329.296875 58.324219 328.710938 61.253906 328.710938 64.769531 L 328.710938 86.449219 C 328.710938 87.035156 328.125 87.621094 327.539062 87.621094 L 325.78125 87.621094 Z M 303.515625 88.792969 C 292.96875 88.792969 288.28125 78.246094 288.28125 67.113281 C 288.28125 55.980469 293.554688 46.019531 304.6875 46.019531 C 315.234375 46.019531 319.921875 56.566406 319.921875 67.113281 C 319.921875 78.832031 314.648438 88.792969 303.515625 88.792969 Z M 304.101562 83.519531 C 307.617188 83.519531 310.546875 81.175781 311.71875 77.660156 C 312.890625 74.730469 313.476562 70.628906 313.476562 67.113281 C 313.476562 63.011719 312.890625 59.496094 311.132812 55.980469 C 309.375 53.050781 307.03125 51.292969 303.515625 51.292969 C 300 51.292969 297.070312 53.636719 295.898438 57.152344 C 294.726562 60.082031 294.140625 64.183594 294.140625 67.113281 C 294.140625 70.628906 294.726562 75.316406 295.898438 78.246094 C 298.242188 81.761719 301.171875 83.519531 304.101562 83.519531 Z M 270.117188 83.519531 C 274.804688 83.519531 277.148438 79.417969 278.320312 74.730469 C 278.320312 74.144531 278.90625 73.558594 279.492188 73.558594 L 282.421875 73.558594 C 283.007812 73.558594 283.59375 74.144531 283.59375 74.730469 C 282.421875 82.933594 277.148438 88.792969 270.117188 88.792969 C 259.570312 88.792969 254.882812 78.246094 254.882812 67.699219 C 254.882812 57.152344 259.570312 46.605469 270.117188 46.605469 C 277.148438 46.605469 282.421875 52.464844 283.59375 60.667969 C 283.59375 61.253906 283.007812 61.839844 282.421875 61.839844 L 278.90625 61.839844 C 278.320312 61.839844 277.734375 61.253906 277.734375 60.667969 C 277.148438 55.980469 274.21875 52.464844 269.53125 51.878906 C 262.5 51.878906 260.15625 60.667969 260.15625 67.699219 C 261.328125 74.144531 263.085938 83.519531 270.117188 83.519531 Z M 270.117188 83.519531 " fill-opacity="1" fill-rule="nonzero"/><path fill="#000000" d="M 121.875 70.042969 C 121.875 72.972656 121.875 75.316406 120.703125 77.660156 C 119.53125 80.003906 117.773438 81.175781 115.429688 81.175781 C 112.5 81.175781 110.742188 78.832031 110.742188 75.902344 C 110.742188 69.457031 116.601562 68.285156 121.875 68.285156 Z M 129.492188 88.207031 L 127.734375 88.207031 C 125.390625 86.449219 124.804688 85.277344 123.632812 83.519531 C 119.53125 87.621094 116.601562 88.792969 111.328125 88.792969 C 104.882812 88.792969 100.195312 84.691406 100.195312 77.074219 C 100.195312 71.214844 103.710938 67.113281 107.8125 64.769531 C 111.914062 63.011719 117.1875 62.425781 121.875 62.425781 L 121.875 61.253906 C 121.875 59.496094 121.875 57.152344 120.703125 55.980469 C 119.53125 54.808594 118.359375 54.222656 116.601562 54.222656 C 113.671875 54.222656 111.328125 55.394531 110.742188 58.910156 C 110.742188 59.496094 110.15625 60.082031 109.570312 60.082031 L 102.539062 58.910156 C 101.953125 58.910156 101.367188 58.324219 101.367188 57.152344 C 103.125 48.363281 110.742188 46.019531 117.773438 46.019531 C 121.289062 46.019531 125.976562 47.191406 128.90625 49.535156 C 132.421875 53.050781 132.421875 57.152344 132.421875 62.425781 L 132.421875 74.144531 C 132.421875 77.660156 133.59375 79.417969 135.351562 81.175781 C 135.9375 81.761719 135.9375 82.933594 135.351562 82.933594 C 133.59375 84.105469 130.664062 86.449219 129.492188 88.207031 Z M 24.609375 70.042969 C 24.609375 72.972656 24.609375 75.316406 23.4375 77.660156 C 22.265625 80.003906 20.507812 81.175781 18.164062 81.175781 C 15.234375 81.175781 13.476562 78.832031 13.476562 75.902344 C 13.476562 69.457031 19.335938 68.285156 24.609375 68.285156 Z M 32.226562 88.207031 L 30.46875 88.207031 C 28.125 86.449219 27.539062 85.277344 26.367188 83.519531 C 22.265625 87.621094 19.335938 88.792969 14.0625 88.792969 C 7.617188 88.792969 2.929688 84.691406 2.929688 77.074219 C 2.929688 71.214844 6.445312 67.113281 10.546875 64.769531 C 14.648438 63.011719 19.921875 62.425781 24.609375 62.425781 L 24.609375 61.253906 C 24.609375 59.496094 24.609375 57.152344 23.4375 55.980469 C 22.265625 54.808594 20.507812 54.222656 19.335938 54.222656 C 16.40625 54.222656 14.0625 55.394531 13.476562 58.910156 C 13.476562 59.496094 12.890625 60.082031 12.304688 60.082031 L 5.273438 58.910156 C 4.6875 58.910156 4.101562 58.324219 4.101562 57.152344 C 5.859375 48.363281 13.476562 46.019531 20.507812 46.019531 C 24.023438 46.019531 28.710938 47.191406 31.640625 49.535156 C 35.742188 53.050781 35.15625 57.738281 35.15625 62.425781 L 35.15625 74.144531 C 35.15625 77.660156 36.328125 79.417969 38.085938 81.175781 C 38.671875 81.761719 38.671875 82.933594 38.085938 82.933594 C 36.328125 84.105469 33.984375 86.449219 32.226562 88.207031 Z M 32.226562 88.207031 " fill-opacity="1" fill-rule="evenodd"/><path fill="#545e60" d="M 232.03125 46.605469 C 226.757812 46.605469 223.828125 48.949219 222.070312 54.222656 L 222.070312 48.363281 C 222.070312 47.777344 221.484375 47.191406 220.898438 47.191406 L 213.867188 47.191406 C 213.28125 47.191406 212.695312 47.777344 212.695312 48.363281 L 212.695312 60.082031 C 222.65625 56.566406 231.445312 53.050781 239.0625 48.949219 C 236.71875 47.191406 234.375 46.605469 232.03125 46.605469 Z M 189.257812 46.605469 C 178.710938 46.605469 172.851562 55.980469 172.851562 67.699219 L 172.851562 70.628906 C 176.367188 70.042969 179.882812 68.871094 183.398438 68.285156 L 183.398438 66.527344 C 183.398438 61.839844 183.984375 54.222656 189.257812 54.222656 C 191.601562 54.222656 193.359375 55.394531 193.945312 57.738281 C 194.53125 60.082031 195.117188 62.425781 195.117188 64.769531 C 198.632812 63.597656 202.148438 63.011719 205.664062 61.839844 C 203.90625 53.050781 198.632812 46.605469 189.257812 46.605469 Z M 166.992188 47.191406 L 142.382812 47.191406 C 141.796875 47.191406 141.210938 47.777344 141.210938 48.363281 L 141.210938 53.636719 C 141.210938 54.222656 141.796875 54.808594 142.382812 54.808594 L 155.273438 54.808594 L 141.796875 74.730469 C 146.484375 74.144531 150.585938 73.558594 154.6875 72.972656 L 166.40625 55.980469 C 167.578125 54.222656 168.164062 53.050781 168.164062 52.464844 L 168.164062 47.777344 C 168.75 47.777344 167.578125 47.191406 166.992188 47.191406 Z M 128.90625 50.121094 C 125.976562 47.191406 121.289062 46.605469 117.773438 46.605469 C 110.742188 46.605469 103.125 48.949219 101.367188 57.738281 C 101.367188 58.910156 101.953125 58.910156 102.539062 59.496094 L 109.570312 60.082031 C 110.15625 60.082031 110.742188 59.496094 110.742188 58.910156 C 111.328125 55.980469 113.671875 54.222656 116.601562 54.222656 C 118.359375 54.222656 120.117188 54.808594 120.703125 55.980469 C 121.875 57.738281 121.875 59.496094 121.875 61.253906 L 121.875 62.425781 C 117.773438 63.011719 111.914062 63.011719 107.8125 64.769531 C 103.125 66.527344 100.195312 70.628906 100.195312 77.074219 L 110.742188 77.074219 L 110.742188 75.902344 C 110.742188 69.457031 116.601562 68.285156 121.875 68.285156 L 121.875 70.042969 C 121.875 72.386719 121.875 74.730469 120.703125 77.074219 C 124.804688 77.074219 128.320312 76.488281 132.421875 76.488281 L 132.421875 63.011719 C 132.421875 57.738281 132.421875 53.050781 128.90625 50.121094 Z M 83.203125 46.605469 C 79.101562 46.605469 75 48.949219 73.242188 53.636719 C 70.898438 48.949219 67.96875 46.605469 63.867188 46.605469 C 59.179688 46.605469 55.664062 48.949219 53.90625 53.636719 L 53.90625 48.949219 C 53.320312 47.777344 52.734375 47.191406 52.148438 47.191406 L 45.117188 47.191406 C 44.53125 47.191406 43.945312 47.777344 43.945312 48.363281 L 43.945312 71.214844 C 47.460938 71.800781 50.390625 72.386719 53.90625 72.972656 L 53.90625 65.941406 C 53.90625 61.253906 53.90625 55.394531 59.179688 55.394531 C 64.453125 55.394531 63.867188 61.839844 63.867188 65.941406 L 63.867188 74.144531 C 67.382812 74.730469 70.898438 74.730469 73.828125 75.316406 L 73.828125 65.941406 C 73.828125 63.597656 73.828125 60.667969 74.414062 58.910156 C 75 57.152344 76.757812 55.980469 79.101562 55.980469 C 81.445312 55.980469 83.203125 56.566406 83.203125 59.496094 C 83.789062 61.253906 83.203125 64.769531 83.203125 66.527344 L 83.203125 76.488281 C 86.71875 76.488281 90.234375 77.074219 93.164062 77.074219 L 93.164062 63.011719 C 93.164062 58.910156 93.75 54.222656 91.40625 51.292969 C 89.648438 47.777344 86.132812 46.605469 83.203125 46.605469 Z M 20.507812 46.019531 C 13.476562 46.019531 5.859375 48.363281 4.101562 57.152344 C 4.101562 58.324219 4.6875 58.324219 5.273438 58.910156 L 12.304688 59.496094 C 12.890625 59.496094 13.476562 58.910156 13.476562 58.324219 C 14.0625 55.394531 16.40625 53.636719 19.335938 53.636719 C 21.09375 53.636719 22.851562 54.222656 23.4375 55.394531 C 24.609375 57.152344 24.609375 58.910156 24.609375 60.667969 L 24.609375 61.839844 C 21.09375 63.011719 15.820312 63.011719 11.71875 64.769531 C 19.335938 67.113281 26.953125 68.871094 35.15625 70.628906 L 35.15625 63.011719 C 35.15625 58.324219 35.742188 53.636719 31.640625 50.121094 C 29.296875 47.191406 24.609375 46.019531 20.507812 46.019531 Z M 20.507812 46.019531 " fill-opacity="1" fill-rule="evenodd"/></svg>