<svg xmlns="http://www.w3.org/2000/svg" xmlns:xlink="http://www.w3.org/1999/xlink" width="500" zoomAndPan="magnify" viewBox="0 0 375 149.999998" height="200" preserveAspectRatio="xMidYMid meet" version="1.0"><defs><clipPath id="ae41283d8f"><path d="M 0 13.59375 L 163 13.59375 L 163 136.59375 L 0 136.59375 Z M 0 13.59375 " clip-rule="nonzero"/></clipPath><clipPath id="eb457d687e"><path d="M 39 13.59375 L 375 13.59375 L 375 134 L 39 134 Z M 39 13.59375 " clip-rule="nonzero"/></clipPath></defs><g clip-path="url(#ae41283d8f)"><path fill="#e61a27" d="M 144.003906 120.882812 C 130.050781 111.878906 111.113281 110.300781 80.574219 118.785156 C 48.015625 126.449219 37.160156 131.359375 22.902344 121.5 C 17.425781 116.65625 15.464844 108.855469 16.929688 97.621094 C 20.332031 79.308594 29.519531 61.683594 45.84375 42.136719 C 54.957031 31.964844 63.410156 23.238281 74.570312 19.734375 C 83.125 17.535156 82.324219 24.265625 81.289062 25.230469 C 80.195312 25.230469 78.363281 25.402344 76.945312 26.328125 C 75.792969 27.222656 72.632812 30.109375 72.464844 33.992188 C 72.21875 39.933594 78.363281 38.699219 81.011719 35.433594 C 83.867188 31.757812 88.085938 24.714844 84.765625 18.152344 C 83.375 15.816406 80.972656 14.203125 77.988281 13.652344 C 67.765625 13.066406 58.25 17.945312 49.464844 23.339844 C 30.253906 36.707031 14.886719 55.226562 6.191406 75.496094 C 1.179688 87.726562 -3.355469 105.25 3.441406 119.507812 C 8.699219 129.402344 19.613281 134.660156 32.632812 133.558594 C 41.765625 132.597656 52.808594 129.640625 60.238281 127.859375 C 67.664062 126.070312 105.683594 112.980469 118.175781 135.761719 C 118.175781 135.761719 122.332031 127.683594 132.710938 127.511719 C 141.246094 126.722656 153.558594 129.988281 162.527344 136.582031 C 159.539062 132.082031 151.070312 125.453125 144.003906 120.882812 Z M 144.003906 120.882812 " fill-opacity="1" fill-rule="nonzero"/></g><g clip-path="url(#eb457d687e)"><path fill="#e61a27" d="M 84.449219 44.4375 C 77.339844 39.765625 63.046875 48.695312 51.597656 64.019531 C 41.132812 77.765625 36.609375 93.738281 41.53125 101.125 C 48.847656 109.816406 62.433594 97.175781 68.210938 90.40625 L 68.953125 89.617188 C 72.882812 85.390625 75.917969 80.304688 78.855469 75.425781 C 78.855469 75.425781 81.554688 70.960938 81.683594 70.753906 C 83.355469 70.445312 85.363281 69.964844 87.628906 69.308594 C 87.597656 69.414062 78.964844 83.945312 79.84375 91.160156 C 80.117188 93.359375 79.910156 101.402344 87.746094 103.839844 C 98.191406 105.59375 106.53125 97.484375 113.890625 90.269531 C 113.890625 90.269531 115.144531 89.066406 115.855469 88.382812 C 115.675781 89.101562 115.441406 90.058594 115.441406 90.058594 C 112.382812 100.710938 116.503906 102.945312 119.082031 103.769531 C 126.875 106.039062 136.1875 94.703125 136.21875 94.703125 C 135.976562 98.273438 135.269531 101.226562 139.027344 103.597656 C 142.578125 104.871094 146.167969 102.929688 148.898438 101.109375 C 158.730469 94.171875 166.652344 83.308594 173.046875 73.917969 L 168.96875 73.917969 C 168.917969 73.917969 158.898438 88.46875 152.390625 91.628906 C 152.378906 91.628906 151.195312 92.238281 150.511719 91.757812 C 149.667969 91.035156 150 89.535156 150.523438 88.46875 C 150.554688 88.402344 175.648438 44.8125 175.648438 44.8125 L 163.800781 44.8125 C 163.800781 44.8125 162.507812 46.910156 162.402344 47.046875 C 162.324219 46.976562 162.132812 46.617188 162 46.445312 C 154.660156 36.277344 138.039062 51.917969 125.523438 70.058594 C 120.703125 77.035156 114.570312 84.886719 108.207031 90.554688 C 108.207031 90.554688 98.785156 99.207031 94.757812 92.992188 C 93.285156 90.378906 93.738281 86.5625 94.570312 84.054688 C 99.257812 70.6875 107.335938 58.558594 116.527344 51.242188 C 119.121094 49.214844 121.945312 48.628906 123.34375 49.488281 C 124.675781 50.28125 124.890625 52.238281 124.046875 53.578125 C 121.90625 53.507812 120.191406 54.160156 118.796875 55.601562 C 116.050781 58.488281 115.097656 61.273438 115.96875 63.882812 C 120.210938 69.929688 128.675781 57.972656 128.265625 50.691406 C 128.117188 48.078125 126.726562 45.605469 124.652344 44.402344 C 121.558594 42.546875 116.835938 43.027344 113.78125 44.507812 C 109.691406 46.050781 103.21875 51.445312 99.441406 55.636719 C 94.683594 60.894531 86.523438 66.734375 83.972656 66.082031 C 84.808594 63.847656 91.699219 49.726562 84.449219 44.4375 Z M 141.574219 65.324219 C 143.878906 62.132812 150.585938 53.574219 152.222656 52.132812 C 157.722656 47.285156 159.917969 49.417969 160.109375 50.929688 C 154.976562 60.136719 148.917969 70.6875 143.222656 80.167969 C 143.234375 80.136719 141.4375 82.882812 141.4375 82.882812 C 138.921875 86.730469 136.390625 90.027344 132.257812 92.332031 C 131.667969 92.503906 130.699219 92.574219 130.050781 92.089844 C 129.273438 91.574219 128.964844 90.714844 129.054688 89.820312 C 129.300781 86.867188 132.304688 77.832031 141.574219 65.324219 Z M 77.117188 70.855469 C 77.117188 70.855469 77.011719 71.167969 76.960938 71.269531 C 76.949219 71.269531 71.796875 79.6875 71.796875 79.6875 C 68.6875 83.84375 64.804688 89.066406 59.949219 91.574219 C 58.511719 92.054688 56.523438 92.367188 55.511719 91.09375 C 53.363281 88.519531 54.46875 84.945312 55.367188 82.058594 L 55.6875 81.027344 C 58.265625 74.019531 62.359375 67.832031 66.339844 62.097656 C 66.390625 62.0625 66.503906 62.027344 66.542969 62.027344 C 66.550781 62.0625 66.570312 62.0625 66.574219 62.132812 C 69.074219 66.941406 73.761719 69.171875 77.265625 70.207031 C 77.285156 70.207031 77.308594 70.238281 77.308594 70.308594 C 77.308594 70.410156 77.253906 70.550781 77.117188 70.855469 Z M 82 60.929688 C 81.976562 60.996094 79.703125 66.21875 79.703125 66.21875 C 79.375 66.496094 78.855469 66.359375 78.261719 66.21875 L 77.238281 66.046875 C 74.039062 65.050781 71.621094 62.921875 70.875 60.378906 C 69.847656 55.429688 74.070312 51.546875 75.929688 50.140625 C 77.710938 48.902344 80.484375 48.25 82.097656 49.523438 C 83.089844 50.691406 83.464844 52.203125 83.464844 53.851562 C 83.46875 56.085938 82.777344 58.59375 82 60.929688 Z M 231.78125 76.871094 C 230.640625 74.398438 227.929688 72.816406 225.039062 72.988281 C 215.652344 73.847656 206.472656 81.578125 201.652344 92.671875 C 199.121094 98.378906 197.742188 103.085938 196.835938 110.574219 C 199.753906 107.207031 205.707031 101.675781 212.464844 98.652344 C 212.464844 98.652344 213.382812 91.472656 218.070312 85.082031 C 219.84375 82.433594 223.394531 78.175781 227.378906 79.308594 C 230.863281 80.476562 229.636719 90.132812 225.007812 99.476562 C 221.585938 106.347656 216.34375 113.222656 211.042969 117.960938 C 206.355469 121.945312 199.417969 126.757812 193.347656 123.046875 C 189.527344 120.78125 187.578125 116.039062 187.988281 109.921875 C 189.816406 92.570312 197.703125 77.796875 208.988281 60.960938 C 220.621094 45.332031 233.449219 29.285156 250.730469 20.730469 C 254.253906 18.941406 257.519531 18.53125 260.339844 19.628906 C 260.339844 19.628906 244.117188 28.5625 236.386719 45.089844 C 234.417969 49.28125 231.683594 54.949219 234.4375 59.964844 C 235.878906 62.578125 238.433594 62.78125 240.492188 62.644531 C 249.96875 60.445312 256.09375 51.582031 261.097656 43.472656 C 263.996094 37.324219 266.574219 31.207031 266.574219 24.40625 C 266.574219 23.582031 266.53125 22.480469 266.460938 21.65625 C 270.992188 19.253906 280.277344 23.511719 280.277344 23.511719 C 287.53125 25.917969 302.980469 37.773438 308.191406 40.039062 C 310.734375 37.085938 314.914062 32.617188 317.265625 30.382812 L 313.859375 28.289062 C 308.40625 24.957031 302.644531 21.792969 296.972656 18.667969 C 284.09375 11.625 273.609375 14.097656 268.273438 16.023438 C 266.175781 16.777344 264.257812 17.429688 264.257812 17.429688 C 260.300781 13.101562 253.804688 13.515625 249.019531 14.683594 C 231.808594 19.628906 215.832031 31.6875 198.699219 52.613281 C 186.105469 69.003906 178.292969 83.160156 174.128906 97.140625 C 170.921875 106.554688 169.945312 120.402344 177.777344 128.613281 C 184.4375 135.585938 193.269531 134.074219 199.507812 131.570312 C 213.019531 124.902344 225.164062 110.539062 231.214844 94.015625 C 232.675781 89.101562 234.296875 82.160156 231.78125 76.871094 Z M 262.855469 25.09375 C 261.066406 45.640625 245.121094 57.699219 241.171875 58.660156 C 238.78125 59.140625 234.703125 58.078125 238.34375 49.453125 C 243.707031 37.839844 252.867188 27.980469 262.691406 22.929688 C 262.929688 23.789062 262.925781 24.335938 262.855469 25.09375 Z M 357.449219 27.703125 C 348.871094 32.582031 339.976562 35.742188 329.214844 34.644531 C 326.230469 38.011719 323.328125 41.480469 320.648438 45.054688 C 335.757812 48.902344 351.773438 40.347656 360.707031 32.207031 C 370.15625 23.992188 375 13.652344 375 13.652344 C 375 13.652344 367.917969 21.761719 357.449219 27.703125 Z M 195.339844 44.8125 L 184.089844 44.8125 L 177.742188 55.140625 L 188.992188 55.140625 Z M 195.339844 44.8125 " fill-opacity="1" fill-rule="nonzero"/></g><path fill="#e61a27" d="M 329.167969 121.839844 C 327.960938 122.664062 326.261719 122.027344 326.894531 120.140625 C 328.476562 115.328125 334.773438 105.527344 334.773438 105.527344 L 352.300781 74.390625 L 340.292969 74.390625 C 339.722656 75.328125 338.503906 77.484375 338.503906 77.484375 C 337.949219 76.558594 336.285156 74.496094 335.601562 74.050781 C 332.667969 72.195312 328.367188 73.074219 325.394531 74.753906 C 312.488281 82.316406 303.070312 97.25 295.640625 108.898438 C 295.640625 108.898438 287.820312 121.847656 283.480469 122.808594 C 280.09375 123.085938 280.441406 118.515625 280.589844 117.449219 C 281.898438 109.75 284.941406 102.433594 288.007812 95.800781 C 294.242188 91.472656 301.359375 85.804688 307.824219 79.585938 C 321.855469 66.152344 333.6875 50.929688 335.417969 47.527344 C 335.417969 47.527344 333.546875 47.90625 331.335938 47.976562 C 320.539062 63.058594 298.445312 84.980469 291.75 88.242188 C 294.714844 81.09375 313.886719 46.980469 330.199219 30.660156 L 332.765625 28.183594 C 336.738281 24.300781 340.851562 20.316406 344.054688 19.664062 C 344.394531 19.628906 344.828125 19.664062 345.207031 20.457031 C 345.347656 23.476562 344.226562 25.710938 342.9375 28.253906 L 341.128906 31.964844 C 341.128906 31.964844 343.6875 31.484375 345.371094 30.933594 C 347.320312 27.257812 349.480469 23.132812 348.683594 18.222656 C 348.417969 16.640625 347.273438 15.4375 345.78125 15.164062 C 340.914062 14.238281 335.613281 17.84375 331.34375 20.765625 L 331.171875 20.867188 C 309.234375 38.082031 290.707031 62.886719 274.511719 96.765625 C 273.339844 97.65625 268.804688 98.722656 268.03125 98.207031 C 269.632812 94.910156 271.644531 90.476562 272.652344 85.664062 C 272.828125 84.289062 272.988281 82.882812 272.988281 81.507812 C 272.988281 78.550781 272.28125 75.769531 269.636719 73.847656 C 266.535156 72.300781 262.703125 73.023438 260.117188 74.1875 C 248.539062 79 239.886719 90.886719 233.644531 100.679688 C 230.285156 106.898438 226.9375 113.5625 226.011719 121.191406 C 225.355469 127.167969 226.6875 131.015625 230.082031 132.941406 C 233.570312 134.726562 237.960938 132.871094 239.6875 131.976562 C 251.414062 125.792969 259.609375 113.390625 266.070312 102.050781 C 266.328125 102.019531 269.855469 101.914062 272.523438 101.226562 C 272.558594 101.226562 272.574219 101.226562 272.632812 101.261719 C 272.480469 101.777344 271.101562 105.902344 271.101562 105.902344 C 267.007812 117.925781 265.113281 126.101562 268.980469 130.945312 C 274.507812 137.785156 283.65625 130.707031 291.097656 121.359375 C 289.5 132.5625 295.296875 134.3125 299.714844 133.457031 C 304.789062 132.082031 310.445312 126.652344 313.070312 123.871094 C 312.226562 127.132812 312.457031 132.976562 317.074219 133.558594 C 320.238281 134.144531 322.605469 132.421875 325.34375 130.941406 C 335.175781 125.582031 346.941406 107.71875 349.996094 102.554688 L 345.988281 102.554688 C 341.648438 109.128906 336.121094 117.746094 329.167969 121.839844 Z M 240.941406 120.640625 C 240.320312 119.714844 240.113281 118.699219 240.089844 117.601562 C 239.972656 110.867188 247.210938 98.800781 252.316406 92.230469 L 252.328125 92.230469 C 254.46875 96.925781 259.316406 99.941406 262.242188 101.214844 C 258.609375 109.324219 246.144531 126.6875 240.941406 120.640625 Z M 264.292969 97.589844 C 263.949219 97.832031 257.835938 95.769531 256.652344 90.097656 C 255.652344 85.21875 259.007812 81.40625 262.253906 79.484375 C 263.648438 78.382812 265.746094 78.003906 267.285156 78.554688 C 268.714844 79.515625 269.101562 81.234375 269.101562 83.089844 C 269.101562 84.222656 268.953125 85.390625 268.820312 86.457031 L 268.789062 86.699219 C 267.761719 90.523438 266.265625 94.152344 264.292969 97.589844 Z M 313.324219 118.476562 C 313.320312 118.476562 312.164062 119.507812 312.164062 119.507812 C 310.515625 120.984375 308.816406 122.566406 306.769531 121.773438 C 306.203125 121.570312 305.804688 120.8125 305.710938 120.226562 C 305.617188 116.003906 307.515625 112.085938 309.359375 108.273438 L 309.832031 107.277344 C 315.132812 98.410156 321.292969 87.96875 330.34375 80.71875 C 331.867188 79.617188 333.523438 78.691406 335.269531 79.414062 C 335.671875 79.789062 336.140625 80.445312 336.140625 81.097656 C 336.140625 81.304688 335.953125 81.851562 335.847656 82.023438 C 333.320312 86.113281 330.914062 90.40625 328.574219 94.53125 C 324 102.671875 319.253906 111.089844 313.324219 118.476562 Z M 313.324219 118.476562 " fill-opacity="1" fill-rule="nonzero"/></svg>