<svg xmlns="http://www.w3.org/2000/svg" xmlns:xlink="http://www.w3.org/1999/xlink" width="500" zoomAndPan="magnify" viewBox="0 0 375 149.999998" height="200" preserveAspectRatio="xMidYMid meet" version="1.0"><defs><clipPath id="341135e819"><path d="M 0 13.652344 L 93 13.652344 L 93 110 L 0 110 Z M 0 13.652344 " clip-rule="nonzero"/></clipPath><clipPath id="262de5f885"><path d="M 230 47 L 289 47 L 289 136.652344 L 230 136.652344 Z M 230 47 " clip-rule="nonzero"/></clipPath></defs><g clip-path="url(#341135e819)"><path fill="#3780ff" d="M 46.183594 13.804688 L 49.519531 13.804688 C 61.09375 14.058594 72.484375 18.726562 80.664062 26.992188 C 77.644531 30.082031 74.558594 33.046875 71.601562 36.136719 C 67.007812 31.972656 61.472656 28.757812 55.433594 27.621094 C 46.496094 25.730469 36.871094 27.433594 29.382812 32.542969 C 21.203125 37.902344 15.667969 46.988281 14.472656 56.703125 C 13.148438 66.289062 15.855469 76.382812 22.085938 83.828125 C 28.0625 91.082031 37.183594 95.625 46.625 95.9375 C 55.433594 96.445312 64.617188 93.730469 71.035156 87.550781 C 76.070312 83.195312 78.398438 76.574219 79.152344 70.136719 C 68.707031 70.136719 58.261719 70.203125 47.820312 70.136719 L 47.820312 57.144531 L 91.800781 57.144531 C 94.066406 71.085938 90.792969 86.792969 80.222656 96.757812 C 73.175781 103.824219 63.421875 107.988281 53.480469 108.808594 C 43.855469 109.753906 33.914062 107.925781 25.355469 103.257812 C 15.101562 97.769531 6.921875 88.496094 2.894531 77.582031 C -0.882812 67.550781 -0.945312 56.199219 2.578125 46.105469 C 5.789062 36.894531 11.953125 28.757812 19.882812 23.078125 C 27.496094 17.464844 36.746094 14.375 46.183594 13.804688 Z M 46.183594 13.804688 " fill-opacity="1" fill-rule="nonzero"/></g><path fill="#38b137" d="M 298.488281 17.085938 L 311.953125 17.085938 L 311.953125 107.167969 C 307.488281 107.167969 302.957031 107.230469 298.488281 107.105469 C 298.554688 77.140625 298.488281 47.113281 298.488281 17.085938 Z M 298.488281 17.085938 " fill-opacity="1" fill-rule="nonzero"/><path fill="#fa3913" d="M 121.75 48.3125 C 130.054688 46.734375 139.050781 48.5 145.910156 53.484375 C 152.140625 57.902344 156.480469 64.839844 157.800781 72.410156 C 159.5 81.179688 157.363281 90.765625 151.699219 97.707031 C 145.59375 105.464844 135.589844 109.628906 125.839844 108.996094 C 116.90625 108.492188 108.222656 104.011719 102.9375 96.695312 C 96.957031 88.621094 95.511719 77.519531 98.785156 68.058594 C 102.054688 57.902344 111.304688 50.140625 121.75 48.3125 M 123.636719 60.296875 C 120.238281 61.179688 117.09375 63.136719 114.828125 65.910156 C 108.726562 73.230469 109.101562 85.152344 115.835938 91.964844 C 119.671875 95.875 125.460938 97.707031 130.808594 96.632812 C 135.78125 95.75 140.121094 92.40625 142.511719 87.992188 C 146.664062 80.484375 145.46875 70.136719 139.113281 64.273438 C 135.023438 60.488281 129.046875 58.910156 123.636719 60.296875 Z M 123.636719 60.296875 " fill-opacity="1" fill-rule="nonzero"/><path fill="#fcbd06" d="M 188.445312 48.3125 C 197.945312 46.484375 208.328125 49.132812 215.4375 55.820312 C 227.011719 66.226562 228.273438 85.71875 218.394531 97.707031 C 212.417969 105.273438 202.726562 109.4375 193.164062 108.996094 C 184.039062 108.746094 175.042969 104.203125 169.632812 96.695312 C 163.527344 88.433594 162.207031 77.078125 165.667969 67.425781 C 169.128906 57.585938 178.1875 50.078125 188.445312 48.3125 M 190.332031 60.296875 C 186.933594 61.179688 183.789062 63.136719 181.523438 65.847656 C 175.480469 73.039062 175.734375 84.773438 182.214844 91.648438 C 186.054688 95.75 192.03125 97.769531 197.566406 96.632812 C 202.476562 95.6875 206.878906 92.40625 209.269531 87.992188 C 213.359375 80.421875 212.164062 70.074219 205.746094 64.207031 C 201.65625 60.425781 195.679688 58.910156 190.332031 60.296875 Z M 190.332031 60.296875 " fill-opacity="1" fill-rule="nonzero"/><g clip-path="url(#262de5f885)"><path fill="#3780ff" d="M 245.007812 51.972656 C 252.242188 47.429688 261.871094 46.167969 269.671875 50.078125 C 272.125 51.152344 274.140625 52.980469 276.089844 54.808594 C 276.152344 53.105469 276.089844 51.339844 276.152344 49.574219 C 280.367188 49.636719 284.585938 49.574219 288.863281 49.636719 L 288.863281 105.273438 C 288.800781 113.664062 286.660156 122.558594 280.621094 128.679688 C 274.015625 135.429688 263.882812 137.511719 254.761719 136.121094 C 245.007812 134.671875 236.515625 127.542969 232.738281 118.523438 C 236.515625 116.691406 240.476562 115.242188 244.378906 113.539062 C 246.582031 118.710938 251.046875 123.128906 256.648438 124.136719 C 262.25 125.144531 268.730469 123.757812 272.378906 119.089844 C 276.28125 114.296875 276.28125 107.734375 276.089844 101.867188 C 273.195312 104.707031 269.863281 107.230469 265.835938 108.175781 C 257.089844 110.636719 247.460938 107.609375 240.730469 101.679688 C 233.933594 95.75 229.90625 86.601562 230.285156 77.519531 C 230.472656 67.238281 236.261719 57.332031 245.007812 51.972656 M 258.03125 60.046875 C 254.195312 60.675781 250.609375 62.820312 248.15625 65.785156 C 242.238281 72.851562 242.238281 84.144531 248.21875 91.082031 C 251.613281 95.183594 257.089844 97.453125 262.375 96.886719 C 267.34375 96.378906 271.9375 93.226562 274.390625 88.875 C 278.542969 81.492188 277.851562 71.464844 272.253906 65.027344 C 268.792969 61.054688 263.253906 59.097656 258.03125 60.046875 Z M 258.03125 60.046875 " fill-opacity="1" fill-rule="nonzero"/></g><path fill="#fa3913" d="M 328.125 55.1875 C 335.675781 48.121094 347.316406 45.726562 357.003906 49.449219 C 366.191406 52.917969 372.042969 61.6875 375 70.707031 C 361.347656 76.382812 347.757812 81.996094 334.101562 87.675781 C 335.988281 91.269531 338.882812 94.550781 342.785156 95.875 C 348.257812 97.832031 354.804688 97.136719 359.394531 93.480469 C 361.21875 92.089844 362.667969 90.261719 364.050781 88.496094 C 367.511719 90.828125 370.972656 93.101562 374.433594 95.433594 C 369.527344 102.816406 361.285156 107.988281 352.410156 108.808594 C 342.597656 110.007812 332.152344 106.222656 325.796875 98.523438 C 315.351562 86.414062 316.359375 66.101562 328.125 55.1875 M 334.855469 66.859375 C 332.71875 69.949219 331.835938 73.734375 331.898438 77.457031 C 341.023438 73.671875 350.148438 69.886719 359.269531 66.039062 C 357.761719 62.503906 354.109375 60.359375 350.398438 59.792969 C 344.421875 58.722656 338.191406 61.9375 334.855469 66.859375 Z M 334.855469 66.859375 " fill-opacity="1" fill-rule="nonzero"/></svg>