<svg xmlns="http://www.w3.org/2000/svg" xmlns:xlink="http://www.w3.org/1999/xlink" width="500" zoomAndPan="magnify" viewBox="0 0 375 149.999998" height="200" preserveAspectRatio="xMidYMid meet" version="1.0"><path fill="#02b9ef" d="M 288.265625 42.128906 C 289.726562 40.960938 290.457031 40.375 291.191406 39.792969 C 301.355469 31.171875 314.371094 32.121094 323.070312 42.347656 C 323.949219 43.371094 324.386719 43.445312 325.265625 42.566406 C 325.851562 41.910156 326.507812 41.398438 327.09375 40.742188 C 333.894531 34.09375 342.886719 32.121094 351.296875 35.847656 C 360.144531 39.792969 364.898438 46.730469 364.972656 56.449219 C 365.117188 77.414062 365.042969 98.308594 365.042969 119.277344 C 365.042969 126.730469 360.4375 131.40625 353.050781 131.40625 C 350.128906 131.40625 347.203125 131.1875 344.277344 131.476562 C 341.28125 131.769531 340.402344 130.820312 340.402344 127.679688 C 340.546875 107.222656 340.476562 86.765625 340.476562 66.3125 C 340.476562 65.433594 340.476562 64.628906 340.476562 63.753906 C 340.402344 59.003906 338.5 57.03125 333.96875 56.8125 C 329.871094 56.59375 327.019531 59.078125 326.582031 63.242188 C 326.507812 64.191406 326.582031 65.214844 326.582031 66.164062 C 326.582031 83.84375 326.582031 101.453125 326.582031 119.132812 C 326.582031 126.875 322.121094 131.40625 314.371094 131.332031 C 310.421875 131.257812 305.082031 133.085938 302.816406 130.527344 C 300.84375 128.335938 302.15625 123.148438 302.15625 119.277344 C 302.15625 101.160156 302.15625 82.96875 302.15625 64.851562 C 302.15625 58.421875 297.988281 55.132812 292.578125 57.324219 C 289.214844 58.714844 288.117188 61.417969 288.117188 64.921875 C 288.191406 81.871094 288.117188 98.75 288.117188 115.699219 C 288.117188 117.011719 288.117188 118.402344 288.117188 119.714844 C 287.898438 126.800781 283.367188 131.257812 276.34375 131.332031 C 273.421875 131.40625 270.496094 131.113281 267.570312 131.40625 C 264.425781 131.695312 263.476562 130.820312 263.546875 127.460938 C 263.695312 98.75 263.621094 70.035156 263.621094 41.253906 C 263.621094 40.011719 263.695312 38.839844 263.621094 37.601562 C 263.476562 35.992188 264.132812 35.480469 265.742188 35.480469 C 272.46875 35.554688 279.125 35.554688 285.851562 35.480469 C 287.535156 35.480469 288.335938 35.917969 288.191406 37.746094 C 288.046875 39.0625 288.191406 40.230469 288.265625 42.128906 Z M 288.265625 42.128906 " fill-opacity="1" fill-rule="nonzero"/><path fill="#06306f" d="M 133.242188 81.726562 C 133.242188 91.734375 133.242188 101.671875 133.242188 111.679688 C 133.167969 124.683594 126.367188 131.40625 113.351562 131.476562 C 107.648438 131.476562 101.871094 131.550781 96.167969 131.476562 C 84.613281 131.332031 76.132812 123.660156 75.546875 112.117188 C 75.109375 103.863281 75.035156 95.535156 75.472656 87.277344 C 76.058594 75.441406 85.125 67.113281 97.117188 66.96875 C 100.261719 66.894531 103.480469 66.96875 106.625 66.96875 C 109.695312 66.894531 110.867188 65.140625 110.792969 62.21875 C 110.792969 59.296875 109.476562 57.984375 106.550781 58.128906 C 103.261719 58.203125 99.972656 58.203125 96.679688 58.128906 C 88.636719 57.984375 84.175781 53.597656 84.25 45.710938 C 84.25 42.496094 82.785156 38.183594 84.90625 36.285156 C 86.734375 34.675781 90.902344 35.699219 94.046875 35.699219 C 102.238281 35.628906 110.355469 35.699219 118.542969 35.699219 C 127.246094 35.699219 133.167969 41.617188 133.242188 50.382812 C 133.316406 60.757812 133.242188 71.277344 133.242188 81.726562 Z M 110.867188 98.308594 C 110.867188 97.066406 110.867188 95.898438 110.867188 94.65625 C 110.867188 87.207031 110.867188 87.207031 103.40625 87.496094 C 99.679688 87.644531 97.632812 89.542969 97.558594 93.414062 C 97.484375 96.484375 97.484375 99.480469 97.558594 102.546875 C 97.632812 107.808594 99.972656 109.195312 107.574219 109.414062 C 113.207031 109.5625 110.355469 105.617188 110.867188 103.425781 C 111.160156 101.816406 110.792969 99.992188 110.867188 98.308594 Z M 198.324219 73.761719 C 198.324219 84.941406 198.46875 96.191406 198.25 107.367188 C 198.101562 115.988281 196.054688 123.808594 187.71875 128.410156 C 184.355469 130.234375 180.699219 131.257812 176.898438 131.332031 C 168.488281 131.476562 160.078125 131.332031 151.667969 131.476562 C 149.621094 131.476562 149.183594 130.746094 149.257812 128.921875 C 149.402344 125.851562 149.183594 122.855469 149.328125 119.789062 C 149.476562 113.945312 153.9375 109.488281 159.785156 109.269531 C 163.589844 109.121094 167.316406 109.195312 171.121094 109.269531 C 174.191406 109.269531 175.875 108.027344 175.875 104.738281 C 175.875 101.378906 174.265625 100.210938 171.195312 100.136719 C 166.074219 99.992188 160.957031 100.722656 155.910156 99.261719 C 147.207031 96.703125 140.847656 89.46875 140.628906 80.484375 C 140.1875 66.238281 140.480469 51.992188 140.410156 37.746094 C 140.410156 36.136719 140.921875 35.628906 142.527344 35.699219 C 148.523438 35.773438 154.449219 35.847656 160.445312 35.699219 C 163.078125 35.628906 162.710938 37.089844 162.710938 38.695312 C 162.710938 49.433594 162.710938 60.101562 162.710938 70.839844 C 162.710938 75.515625 164.90625 78 169 78.144531 C 173.824219 78.292969 175.945312 76.320312 175.945312 71.425781 C 175.945312 60.613281 176.019531 49.726562 175.875 38.914062 C 175.875 36.359375 176.53125 35.628906 179.089844 35.699219 C 184.429688 35.917969 189.839844 35.992188 195.179688 35.699219 C 198.101562 35.554688 198.542969 36.648438 198.46875 39.207031 C 198.25 50.675781 198.324219 62.21875 198.324219 73.761719 Z M 12.003906 90.347656 C 12.003906 78.4375 12.003906 66.457031 12.003906 54.550781 C 12.003906 42.859375 19.167969 35.554688 30.941406 35.699219 C 38.621094 35.773438 46.296875 34.824219 53.902344 36.285156 C 63.628906 38.183594 69.769531 45.710938 69.84375 55.71875 C 69.917969 66.3125 69.84375 76.90625 69.84375 87.496094 C 69.84375 100.792969 62.019531 108.902344 48.710938 109.269531 C 44.6875 109.414062 40.667969 109.339844 36.644531 109.269531 C 34.816406 109.195312 34.011719 109.78125 34.085938 111.753906 C 34.234375 114.675781 34.160156 117.597656 34.085938 120.519531 C 33.941406 126.800781 29.480469 131.332031 23.265625 131.40625 C 19.609375 131.476562 15 132.9375 12.660156 130.820312 C 10.46875 128.847656 12.074219 124.171875 12.003906 120.664062 C 11.929688 110.582031 12.003906 100.429688 12.003906 90.347656 Z M 34.085938 72.449219 C 34.085938 74.785156 34.085938 77.050781 34.085938 79.386719 C 34.085938 87.644531 34.085938 87.644531 42.347656 86.914062 C 45.933594 86.621094 47.613281 84.867188 47.6875 81.289062 C 47.761719 77.195312 47.542969 73.03125 47.761719 68.941406 C 48.199219 57.105469 46.003906 58.273438 36.351562 58.203125 C 34.597656 58.203125 34.011719 58.714844 34.011719 60.464844 C 34.160156 64.410156 34.085938 68.429688 34.085938 72.449219 Z M 34.085938 72.449219 " fill-opacity="1" fill-rule="nonzero"/><path fill="#02b9ef" d="M 219.015625 90.492188 C 219.015625 80.777344 218.941406 70.988281 219.089844 61.269531 C 219.089844 59.003906 218.578125 58.054688 216.089844 58.128906 C 212.800781 58.273438 208.414062 59.222656 206.585938 57.617188 C 204.320312 55.5 206.074219 50.96875 205.78125 47.460938 C 205.78125 47.242188 205.78125 46.949219 205.78125 46.730469 C 205.78125 43.296875 204.683594 39.28125 206.148438 36.722656 C 207.609375 34.164062 212.070312 35.773438 215.214844 34.96875 C 221.429688 33.363281 226.109375 29.78125 229.910156 24.816406 C 232.542969 21.453125 235.835938 19.042969 240.074219 18.238281 C 242.34375 17.800781 243.730469 18.09375 243.585938 21.015625 C 243.367188 25.105469 243.585938 29.269531 243.511719 33.433594 C 243.441406 35.1875 244.097656 35.773438 245.851562 35.699219 C 248.777344 35.628906 251.703125 35.773438 254.628906 35.628906 C 256.382812 35.554688 256.96875 36.210938 256.894531 37.964844 C 256.820312 43.957031 256.820312 49.875 256.894531 55.863281 C 256.894531 57.542969 256.457031 58.421875 254.628906 58.203125 C 254.261719 58.128906 253.894531 58.203125 253.53125 58.203125 C 250.3125 58.492188 245.851562 56.742188 244.171875 58.933594 C 242.5625 60.976562 243.585938 65.214844 243.585938 68.503906 C 243.585938 88.375 243.511719 108.171875 243.660156 128.042969 C 243.660156 130.820312 242.929688 131.695312 240.148438 131.476562 C 237.515625 131.257812 234.8125 131.476562 232.105469 131.40625 C 224.207031 131.113281 219.015625 125.78125 219.015625 117.890625 C 219.015625 108.757812 219.015625 99.625 219.015625 90.492188 Z M 219.015625 90.492188 " fill-opacity="1" fill-rule="nonzero"/></svg>