<svg xmlns="http://www.w3.org/2000/svg" xmlns:xlink="http://www.w3.org/1999/xlink" width="500" zoomAndPan="magnify" viewBox="0 0 375 149.999998" height="200" preserveAspectRatio="xMidYMid meet" version="1.0"><path fill="#004fa3" d="M 228.273438 46.496094 L 179.390625 46.496094 L 179.390625 62.4375 L 195.734375 62.4375 L 195.734375 96.539062 L 211.65625 96.539062 L 211.65625 62.4375 L 228.273438 62.4375 Z M 228.273438 46.496094 " fill-opacity="1" fill-rule="evenodd"/><path fill="#004fa3" d="M 276.015625 96.410156 L 260.601562 46.496094 L 241.222656 46.496094 L 225.828125 96.410156 L 241.746094 96.410156 L 250.921875 60.917969 L 260.074219 96.410156 Z M 276.015625 96.410156 " fill-opacity="1" fill-rule="evenodd"/><path fill="#004fa3" d="M 324.789062 46.496094 L 275.929688 46.496094 L 275.929688 62.4375 L 292.273438 62.4375 L 292.273438 96.539062 L 308.195312 96.539062 L 308.195312 62.4375 L 324.789062 62.4375 Z M 324.789062 46.496094 " fill-opacity="1" fill-rule="evenodd"/><path fill="#004fa3" d="M 372.007812 96.410156 L 356.613281 46.496094 L 337.234375 46.496094 L 321.816406 96.410156 L 337.761719 96.410156 L 346.910156 60.917969 L 356.085938 96.410156 Z M 372.007812 96.410156 " fill-opacity="1" fill-rule="evenodd"/><path fill="#004fa3" d="M 60.585938 100.015625 C 64.0625 85.253906 66.636719 70.875 66.636719 70.875 C 66.992188 69.507812 67.054688 68.132812 66.832031 66.742188 C 66.609375 65.351562 66.113281 64.0625 65.351562 62.878906 C 62.757812 59.652344 54.804688 60.773438 54.804688 60.773438 C 54.804688 60.773438 42.40625 60.917969 29.773438 62.4375 C 18.515625 63.808594 7.023438 66.042969 2.78125 66.886719 C 1.894531 69.929688 1.445312 73.039062 1.433594 76.207031 C 1.433594 98.414062 23.636719 117.269531 54.46875 123.996094 C 56.09375 118.132812 58.515625 109.042969 60.625 100.058594 Z M 60.585938 100.015625 " fill-opacity="1" fill-rule="evenodd"/><path fill="#004fa3" d="M 83.507812 90.738281 C 83.359375 72.855469 83.84375 56.195312 83.84375 56.195312 C 83.683594 55.527344 83.691406 54.859375 83.875 54.195312 C 84.058594 53.53125 84.394531 52.953125 84.878906 52.464844 C 86.585938 51.59375 88.398438 51.183594 90.316406 51.238281 C 90.316406 51.238281 105.078125 51.660156 121.652344 53.769531 C 133.738281 55.332031 146.8125 57.820312 152.714844 59 C 141.855469 39.578125 113.132812 25.703125 79.375 25.703125 C 45.613281 25.703125 16.699219 39.703125 5.925781 59.230469 C 11.089844 58.179688 25.15625 55.4375 38.105469 53.769531 C 54.660156 51.660156 69.417969 51.238281 69.417969 51.238281 C 71.335938 51.183594 73.152344 51.589844 74.859375 52.464844 C 75.34375 52.953125 75.675781 53.53125 75.859375 54.195312 C 76.042969 54.859375 76.054688 55.527344 75.894531 56.195312 C 75.894531 56.195312 76.398438 72.855469 76.253906 90.738281 C 76.125 104.425781 75.703125 118.785156 75.449219 126.589844 C 76.738281 126.589844 78.042969 126.589844 79.351562 126.589844 C 80.996094 126.589844 82.640625 126.589844 84.265625 126.589844 C 84.011719 118.808594 83.589844 104.488281 83.484375 90.738281 Z M 83.507812 90.738281 " fill-opacity="1" fill-rule="evenodd"/><path fill="#004fa3" d="M 130.046875 62.394531 C 117.394531 60.878906 104.996094 60.730469 104.996094 60.730469 C 104.996094 60.730469 97.023438 59.652344 94.449219 62.839844 C 93.679688 64.019531 93.183594 65.304688 92.957031 66.699219 C 92.734375 68.089844 92.804688 69.46875 93.164062 70.832031 C 93.164062 70.832031 95.738281 85.214844 99.195312 99.976562 C 101.304688 108.851562 103.6875 117.816406 105.3125 123.722656 C 135.613281 116.847656 157.355469 98.140625 157.355469 76.167969 C 157.320312 72.917969 156.828125 69.742188 155.878906 66.632812 C 150.988281 65.664062 140.378906 63.660156 129.984375 62.417969 Z M 130.046875 62.394531 " fill-opacity="1" fill-rule="evenodd"/></svg>